<svg xmlns="http://www.w3.org/2000/svg" width="2816" height="1536"><path d="m1752 2767-33-4-27-8-11-5c-23-11-32-11-58-3l-12 3-16 3a159 159 0 0 1-79-4c-7-2-20-17-25-26l-4-7 1-20v-20l-2-4c-12-23-17-27-26-21a175 175 0 0 1-39 16l-8 3c-9 3-27 2-39-3-13-6-13-6-28-6q-15 0-19-2-16-4-17 3l-3 4-2 5c1 4-1 8-14 22l-6 8c-3 3-13 9-14 8l-4 1c-4 3-13-1-17-6l-8-8c-9-10-16-26-12-26 11 0 27 15 31 30 2 9 9 11 10 3q5-23 26-31c11-5 11-7-6-14-10-4-13-8-20-25q-5-11-8-6c-5 17-14 30-20 31l-8 3-7 3 1-3c2-11 19-31 29-34q6-1 8-6l3-5-1-10v-31q6-38 0-44l-2-5c0-11-10-13-18-4l-32 30-12 9q-7 3-14 9l-12 7-4 2-3 2-12 4a82 82 0 0 1-24 9l-15 4c-27 8-33 9-38 8l-5-1a145 145 0 0 1-41-14q-3 0-10-7c-17-17-25-20-36-13l-39 18-11 2-16 2a200 200 0 0 1-56-3c-10-1-18-3-32-7a115 115 0 0 0-54-1l-10 3-16 5q-18 4-25 3a88 88 0 0 1-39-12q-10-5-19-14l-7-5c-2 0-17-27-18-33l-1-8q-2-11-7-6-3 4 0 6c1 1-2 14-4 17l-3 8-5 8-1 4-2 4-2 6-4 7-6 9q-6 7-19 14l-21 11c-16 6-49 6-65 1a116 116 0 0 1-45-26l-5-6c-4-3-10-14-10-17l-4-8c-11-22-12-31-8-65 4-44 3-45-19-41q-9 3-16 3-12-2-2 7 16 18 3 38l-2 5h6q15 1 13 16c-5 16-28 9-23-8q3-8-7-3c-21 7-38-5-39-26q-1-26 26-32 7-1 0-4c-4-2-15-15-19-22-7-13-9-16-12-19l-9-16a57 57 0 0 1 10-54c1 0 14-19 15-23q3-7-6-21l-4-10-3-4-2-6-2-4q-3-6-5-23l-2-5c-1-2-3-22-3-50v-30l2-7 8-23 1-2 2-4c3-7 12-20 18-25 18-17 22-19 44-25l11-3 13 1c15 1 22 2 37 8 14 5 23 6 43 5a508 508 0 0 0 93-13l24-4a106 106 0 0 1 55 5q4 1 6 4l5 3q2 0 7 4t11 6l6 3c3 2 14 0 19-3l6-2 8-5 8-4 5-3 28-9c23-7 75-7 98-1l30 11 9 4 12 6c5 2 8 5 20 16 14 13 27 21 31 18l17-14c5-5 18-14 27-19l29-16 7-3 15-4 19-4 16-2c1-2 36-2 50 0 29 4 33 2 34-19l3-20 3-10 3-6a98 98 0 0 1 31-31c5-4 29-7 39-5 17 6 24 10 43 28a404 404 0 0 0 53 49q17 14 36 10c25-6 40-5 67 5 7 2 13 3 35 4a207 207 0 0 1 52 8q13 1 32 11l14 5 9 4q10 8 5-5c-8-21 3-45 22-55l7-3h25l6 3c20 10 30 35 22 56q-6 12 6-1a85 85 0 0 1 27-19l14-3c21-6 54-4 66 5l8 3 6 2 9 8 10 8 3 4 6 8 6 10 9 17q0 2 3 2h4l8-9 11-13q3-5 8-10l7-7 16-8c11-6 16-8 31-12 16-4 58 4 69 14a59 59 0 0 0 27 14q2 1 2-1l2-1q2 1 3-1l2-2-1 3v3c2 0 19-9 27-15 11-8 19-11 43-15l7-3 12-3 12-2a243 243 0 0 1 83 9l7 2 9 2c22 9 32 10 39 5l6-4 27-22 28-28c31-32 66-39 89-19l8 7c7 4 7 5 17 24 6 12 7 20 7 50l-1 23 3 12c4 16 5 23 3 37-1 15-6 31-11 36l-9 15-6 8c-3 3-6 11-6 15l-2 4-5 7c-3 6-5 9-15 21a50 50 0 0 1-19 13l-3 1-5 2q-3 3-29 7l-18 4-2 2-5 2-15 12-4 4-4 4-4 5q-6 6-1 17l3 6c2 5 10 13 15 15l5 2 8-1c22-3 58-2 64 2l7 3a43 43 0 0 1 25 23c7 12 8 58 2 69l-11 16-10 8-31 2-10-1-4 3q-10 3-6 18c4 15 3 37-2 44l-3 7a113 113 0 0 1-32 39q-6 5-13 6l-4 2c-6 2-20 3-26 2-19-3-28 2-40 20l-5 6q-2 2-2 3l-4 4-36 28a130 130 0 0 1-32 17 154 154 0 0 1-97 5c-6-1-7-2-12-5l-19-9q-12-6-27-23-28-31-57 3a531 531 0 0 1-105 88c-4 3-18 10-27 13l-11 4a136 136 0 0 1-50 10c-22 2-31 2-41 1m51-12c31-4 34-5 59-16a327 327 0 0 0 51-30q18-14 51-47c49-48 62-51 84-21 13 17 41 33 71 40l11 3 12-1c20-1 48-8 63-15 21-10 51-35 67-55 16-21 19-22 42-20 50 4 90-47 74-94-8-21-1-27 33-26l14 1 8-3q13-6 18-18c3-6 3-5 3-30v-17c0-35-43-52-96-38q-19 6-24-6l-7-11c-16-26-15-33 10-49l8-7c9-11 16-15 34-17q59-4 74-53 4-11 12-20c18-19 27-59 18-84-5-14-6-18-4-31 9-82-59-120-107-60-15 19-59 57-70 61q-10 3-25-5a200 200 0 0 0-181 5c-32 21-37 22-53 10-50-38-113-30-143 18l-6 10c-2 2-5 11-7 19l-6 17-2 7-3 11-2 9-3 8-1 5q-1 7-5 8c-3 0-2-14 1-23 3-7 3-9 3-21q-1-74-48-94c-57-23-109-2-130 51-5 13-6 14-12 16l-4 1-5-3q-5-3-18-16l-12-13-11-6c-55-30-81-37-136-36h-8l-11-5q-34-14-68-4c-16 4-16 4-36-10l-13-10c-6-4-28-26-48-47-16-16-27-21-46-21-35 0-56 27-56 73 0 22-4 24-34 19-64-10-132 10-174 52-15 15-20 16-31 6-36-33-58-45-93-52-48-10-91-3-140 22-23 12-20 12-39-1-30-22-52-25-94-14a739 739 0 0 1-124 15h-7l-8-5c-69-37-133 13-130 103 1 48 9 78 24 100 10 15 8 22-13 44l-10 14-3 7v11c0 14 2 19 10 29l11 17q20 39 59 26 16-6 25 2 3 4 0 25c-8 55-3 84 22 112 29 35 98 38 133 6l8-7 6-12c10-20 13-32 15-53a346 346 0 0 1 9-70c7-33 36-111 46-120q5-6 15 0l30 14c16 5 13 14-18 45-32 34-46 54-56 85l-3 10v16c1 70 52 109 113 87 28-11 47-11 81-2 27 7 40 9 62 9 27 0 41-3 60-13 34-19 34-19 50-5 33 29 61 34 111 20a261 261 0 0 0 125-85l3-2 5 2q6 2 10 15l5 14 3 7-1 17-3 27q-7 39 21 53l14 9 13 6 8 2 13 1c15 0 19 0 32 6l8 4h10c8 0 10-1 16-3l17-5c11-3 16-6 26-14q18-18 37 22c8 16 8 14 5 30q-11 55 65 54c22 0 60-7 79-15q10-3 34 6a357 357 0 0 0 70 19c12 1 40 0 58-2m-46-11c-33-3-60-11-93-28l-12-6-11 5c-79 34-163 14-124-29 5-5 4-6-1-12-8-9-14-22-14-30q0-3-4-4-8-5-12-17c-4-13-4-12-13-16-13-7-18-23-10-31q4-4 0-4c-4 0-4-1-9 16-3 10-4 13-4 23 0 20-6 26-27 29l-12 4q-22 13-39-9c-7-9-6-8-11-4-14 11-31 10-42-1l-12-8c-16-8-21-18-16-38l2-23 3-19 2-6-4-6c-25-43-9-96 33-109 8-3 7 0 8-43a1277 1277 0 0 1 10-142c1-4-1-4-16-4l-13 1v25c4 157-77 285-201 318-53 13-96-11-103-58l-2-8-7 10q-28 48-87 50c-18 1-24 0-78-12-29-6-49-5-70 3q-59 23-87-19c-36-55-11-109 87-194q39-35 25-29c-39 15-80 2-101-32-6-10-7-9-20 23l-12 28q-41 92-45 170c-2 43-17 66-49 79l-9 3h-17c-101 3-111-104-25-279l24-53c0-2-23-1-27 0l-5 8a74 74 0 0 1-80 43q-13-2-4 3l7 6 3 3 8 1c24 2 36 20 28 43l-3 6 1 6c6 26-8 43-32 41h-8l-9 4-9 5-7-1q-22-1-28-24l-2-8-7-6c-16-15-15-35 3-46 8-6 10-8 13-15q9-18 26-19 7-1 1-4c-35-15-51-53-51-123 0-26 4-42 14-59 19-34 71-43 103-19l4 3h8c37-1 87-8 141-18q63-14 87 37c4 8 4 8 12 0 77-76 208-57 260 37q2 8 8-4a181 181 0 0 1 227-67l5 2 1-2 6-7c4-7 4-8 1-18-18-68 34-108 79-59a345 345 0 0 0 84 72l3 3 6-3c22-13 51-13 75 0l6 4h27c59 0 114 22 147 60 12 14 26 34 32 47 6 11 5 12 12-20 9-46 14-57 30-72 33-31 102-21 120 18 12 23 12 39 2 86-11 55-13 49 12 49 24 0 22 1 25-19 9-51 18-87 25-100 29-58 119-54 140 6 4 9 3 9 13-1 26-28 55-44 95-53l12-3h22c38 0 68 9 98 29 8 6 6 6 19-4l26-20c14-10 22-17 50-47 20-20 24-23 39-23 33-2 52 36 40 81-3 12-3 11 1 17 16 24 10 59-16 87q-8 8-7 11c-1 34-36 56-85 51l-9-1-3 7a75 75 0 0 1-58 42c-11 2-11 1-1 11q28 30 40 59c6 14 4 13 18 7 53-24 109-7 96 28l-2 6 1 4q7 18-7 29l-4 3h-8l-20-1q-21-1-48 18c-10 7-10 7-1 13q34 26 1 71-23 31-57 14-9-5-11-4-10 6-24 24c-70 91-155 101-223 25-22-25-40-18-90 32-37 38-61 57-91 72-32 16-75 25-108 22m47-4c56-11 93-32 150-90 29-29 34-34 49-41 19-10 29-8 44 8 69 77 157 65 226-32q16-21 29-15c21 14 45 9 59-13q30-45 0-66c-13-8-13-9-2-16q35-24 59-19c23 4 36-9 29-30l-2-5 2-6c12-34-44-49-94-25-14 6-14 6-17-3-9-23-26-49-46-68-9-8-9-7 7-10q38-6 55-41c4-8 4-8 20-6 41 4 72-15 77-47v-8l9-9c17-20 21-29 22-50l1-13-3-8-6-13c-4-6-4-4-1-15 14-47-11-91-46-81-11 3-17 8-48 41-12 13-19 19-28 26l-27 20c-17 12-15 12-24 6-70-47-161-37-222 24-15 15-14 15-18 3-8-18-20-33-32-37-49-19-90-4-109 37-5 13-14 50-23 99-2 16 0 15-25 15-26 0-24 4-16-36s9-42 9-56c4-92-126-112-149-23l-6 31c-8 37-8 36-14 24-11-21-34-51-48-62-45-35-88-49-139-46l-16 2-12-6a73 73 0 0 0-69-1c-10 4-10 4-16-1l-17-11c-17-12-29-22-46-40-27-28-32-33-39-36-38-19-69 21-55 74 3 13 3 11-3 21-7 10-6 9-16 5-78-35-177-5-221 67-7 12-8 12-13 3-34-68-114-97-197-71-18 5-44 21-60 37-9 8-8 8-13-1-19-35-43-45-89-36-60 11-88 15-133 17l-13 1-5-4c-44-30-98-9-112 45l-2 9v25c0 34 3 55 9 73 22 66 107 71 138 8 4-8 5-8 22-9 15-1 14-1 7 15l-5 13-13 26a680 680 0 0 0-39 94c-41 110-17 187 59 187q72 0 76-82a546 546 0 0 1 58-202c5-14 14-28 16-28l7 9q22 36 68 36c14 0 17-1 30-6q12-4 11-1c0 1-22 23-32 31q-50 43-77 77c-59 78-9 171 73 136q27-12 70-3c66 14 77 15 105 8q43-11 65-55 5-11 6 7c4 38 40 65 82 61a255 255 0 0 0 188-154 308 308 0 0 0 24-73c4-7 9-73 8-102-1-20-3-18 16-18 18 0 16-4 13 27-6 64-7 77-8 125l-1 36-2 1-4 2c-7 0-29 16-37 28-12 18-11 55 3 78q4 8 3 10l-3 23-3 23c-4 20-1 28 15 36l13 9q18 17 41-1l5-3 2 3c13 17 17 19 28 19l11-2c9-5 11-6 17-6 19-3 25-9 25-29v-12l4-11 4-12q0-4 6-4 8 1 3 4c-10 4-5 24 8 30 9 4 9 4 12 15 4 12 6 14 12 17q5 3 5 10c1 6 7 19 14 26 7 8 7 8 1 15-11 12-10 28 1 36 22 13 88 7 125-12 7-3 9-3 16 0q40 23 87 29c10 2 47 1 57-1m-50-13c-33-4-66-15-91-30-10-6-9-6-19 0-38 21-119 26-119 8 0-5 0-6 10-14 11-10 11-9 2-18-24-24-24-44 0-33 13 6 39 11 58 10q18 2 10-6c-27-38-33-76-18-105 13-24 46-26 67-4l6 6 2-3q9-12 22-19 9-4 7-6a632 632 0 0 1 1-122v-5l-4 13c-19 59-68 110-131 135-36 15-84 25-109 22q-16-3-10 5 6 9 0 22l-3 9q0 2 0 0l3-11c3-10 3-14-1-20q-7-9 9-7c14 2 46-1 69-7 88-22 150-77 174-156q9-30 3 16c-2 30-3 90 0 106l1 3-8 4q-14 8-23 20l-2 3-6-6c-21-24-54-21-67 6-13 26-7 62 17 98 8 11 8 11-13 10-22 0-44-5-56-11-21-11-20 10 2 31 11 11 11 10-1 21q-28 21 17 23c25 2 66-7 89-18 12-7 11-7 22 0q139 84 283-61c59-60 82-64 121-20 51 58 129 44 188-34q11-15 18-20l14-13q7-7 8-5 2 1 0 0-2 0-7 6l-13 12c-8 6-10 9-28 32-42 53-103 72-153 47-9-5-11-7-38-35-30-31-58-23-109 30-52 54-91 78-144 89-8 2-42 3-50 2m122-43 4-4c18-11 44-35 65-57 22-24 49-42 67-45 23-4 39 2 57 25 13 15 24 24 14 11-25-33-33-41-50-50l-9-4h-18q-46-1-85 42l-21 20c-12 11-3 0 13-15 43-41 64-51 100-49 24 2 39 12 61 41q24 34 47 39 14 5 0 2c-21-5-35-15-52-35-36-43-67-37-132 28a354 354 0 0 1-61 51m-135-12q-26-2-39-7l-5-2 12-11q40-41 41-81l1-13 6-1c35-4 50-27 52-82l5-91c1-1 76-3 78-2l-1 27c-2 41-1 110 1 119 6 22 29 41 50 41q3 0-5 6-13 10-34 30c-40 38-66 54-105 63-16 4-39 5-57 4m49-3c41-9 69-24 103-57l41-37q12-6-1-7-31-8-42-38l-2-8v-46l1-93-71 1-4 1-1 3c-1 6-3 40-3 71-2 49-3 54-10 69-8 16-32 32-49 32v9q-1 41-43 85l-8 9c4 3 23 6 42 8 10 1 37 0 47-2m-53-13c-8-2-8-2-1-12 14-16 26-42 29-59 2-15 1-13 12-17 34-13 46-37 48-97l3-71 7-2 39-1c2 1 2-1 1 46-3 88 1 109 27 127 9 6 9 6-8 22-35 34-51 44-84 56-19 7-55 11-73 8m51-3c38-7 66-24 105-62 15-14 15-15 8-19q-18-14-26-40l-2-9v-43l1-62v-19h-21l-23 2c-1 1-2 10-4 66-2 66-13 89-49 102-9 3-9 3-10 11-2 19-15 47-29 65l-5 8c3 3 40 3 55 0m-14-18c-8-4-8-8-1-24 11-25 11-26 25-36 21-15 32-32 39-59 3-11 3-16 5-53 1-28 1-29 5-34l3-2 3 1c4 2 5 3 4 44 0 49 2 62 14 86q9 17 5 24c-7 26-81 64-102 53m29-11 9-3 8-4 9-4q3-3 8-5c6-3 9-6 20-15q14-13 5-32l-4-10c0-4-7-19-9-21l-2-2-3 3-2 4c0 2-4 9-6 10l-4 8c-4 7-15 20-23 26a68 68 0 0 0-21 21c-2 0-7 16-7 19q0 12 22 5m-120 38 2-3 33-32c-8 13-35 39-35 35m-37-25c-17-11-36-39-36-52-1-22 18-25 39-6 10 10 13 9 23-2 20-23 47-27 47-7 0 21-27 51-57 66-10 5-10 5-16 1m16-2c28-14 53-42 55-63l1-7-3-3c-8-8-26-1-44 17-10 10-13 11-24 1q-29-25-36 0-4 18 24 45c14 15 15 15 27 10m-16-17c-5-4-14-17-17-24q-7-18 12-1 19 20 41-4c14-15 24-17 16-3q-10 15-30 28c-14 10-15 10-22 4m13 1q23-13 36-32c9-13 1-11-12 3q-21 25-44 4c-18-17-13 1 6 20 8 9 7 8 14 5m-93 15-19-6-16-5c-8-1-8-1-8-4q-2-9 9-13c18-9 19-24 1-34q-20-9 7-16l19-7q11-5 7 6c-3 17 1 46 8 63 7 14 7 15 5 16q-1 3-13 0m13-2-5-11c-9-19-13-44-10-63q4-12-3-8l-18 6c-20 7-20 9-7 16 16 8 15 26-1 34q-21 12-4 16 7 0 17 5c15 6 31 8 31 5m540-26c-16-3-41-16-49-26a82 82 0 0 0-63-30c-14 0-15 0-12-5 8-9 10-17 11-47a1246 1246 0 0 1 38-311c9-44-8-73-47-78-34-5-60 13-70 47l-21 109-1 3-38-1h-38v-5q0-10 9-46c11-56 12-74 2-93-20-37-86-36-106 3-7 12-17 62-25 122l-6 39-1 3-1-6c-15-124-98-198-206-183l-11 1-3-2-9-6c-19-13-51-9-69 8l-4 5-2-2v-1l6-3c20-20 52-22 74-5l7 5 11-1c100-11 187 55 203 154l3 16c2 13 3 7 9-40 5-38 17-93 23-105 20-40 90-41 109 0 6 13 8 34 4 53l-16 87q0 2 38 2h36l1-3 1-7c2-17 14-76 19-96q12-54 63-54c45 0 68 33 57 81l-24 126a999 999 0 0 0-10 120q8-35 37-45c38-13 72 7 84 49 10 40 57 54 73 23 11-22-3-40-54-70s-63-39-79-60c-22-30-29-54-26-94 6-103 120-170 218-129 13 6 45 30 43 32q-2 0-9-8c-73-70-217-28-246 72-20 70 6 130 75 171l32 19c38 23 48 34 49 53q2 30-33 30h-12l-8-4c-13-6-18-14-25-35-27-86-135-58-119 30 12 69 75 122 148 126q21 0 5 6c-12 6-31 8-45 6m32-2 12-5 6-3-12-1c-69-4-126-50-145-116-4-15-4-14-5 15-1 32-2 39-9 50l-2 4 12 1c26 1 41 8 62 29 23 22 55 33 81 26m-639-5q6-8 13-10l3-1-7-3q-11-5-14-16l-2-8-1-4-2 6q-4 19-17 22-9 3 0 5l5 3-4-1-6-2q-6-1 5-6c9-4 11-7 15-21q5-17 7-2 4 20 16 23 13 4 0 8l-9 6-4 4zm717-10-3-4h-2q-2 1-2-2l-3-2-4-2-1-2 2-3c4-10 16-15 22-10l4 3 3 1 4 1q5 0-8 16c-6 7-7 7-12 4m-904-3q-5-2-6-7l3-28q3-4 1 2v20q-3 13 7 12l2 1zm102-11-1-5q0-2-3-2l-5-2-5-2q-5-1 1-3c12-2 20 5 16 14q-2 6-3 0m-23-22 12-8c22-14 38-34 38-48v-4q2 6 2-2l-1-4h-1l-1 2v-5l-3-3q-3-9-16-13l-8-3-6 1c-9 2-11 4-22 14-11 12-11 12-18 2-6-8-9-10-18-13h-2l-2 3-5 7-3 2 3-4c11-12-6-23-18-11q-8 10 0 17 3 3-2 0c-8-6-13 13-7 27 4 7 16 24 23 31q13 11-5 0c-47-28-43-95 4-95h9l6 3q16 10 22 28 4 5 5 3c0-8 22-22 34-22 17 0 38 17 37 31l-1-1q-2-7-1 3 2 10 3 4v-1c5 13-13 40-39 56-4 2-21 5-19 3m-75-87 6-5q8-6 3-6l-2-1q-3-3-3 0l-5 5-4 4 1 2q3 4 4 1m741 72c-4-3-17-17-16-18q2-4 13 7 14 15 3 11m-307-6q-2-2 2-3c4-2 14-12 17-17q5-8 6-48l3-79c1-31-1-29 21-30h103v11l-2 18-4 86-3-4-2-1 1-30 3-61v-12h-38c-37 0-67 2-69 3-2 2-6 59-7 102-1 34-4 46-12 56-6 6-16 11-19 9m-267-4c-2-4 28-11 35-9l3 1-6 2c-11 4-31 8-32 6m447-3q-5-3 3-10c11-9 13-12 15-25 1-16 11-16 11 0 1 20-20 45-29 35m11-2q17-12 17-31c0-17-7-17-9 0q-2 15-12 22-7 5-6 7 0 8 10 2m321 3-6-4q-8-6-10-3-3 3 0 2l2-1-1 2q-9 6-6-4 4-10 10-2l10 7q7 5 1 3m-290-6c-2-1 1-26 2-28 4-4 6 17 2 26q-2 6-4 2m-339-8c-13-7-13-6 1-21l17-19c9-11 9-11 10 14 2 23 2 21-6 27-9 6-9 6-22-1m21 0 7-5-1-19c-1-24 0-24-11-11l-25 28 22 11zm238-2c-1-1-1-13 1-14v-4c-2-3-2-11 0-11q2 0 1 2l1 3c2 2 2 18 1 19l-1 3q-1 3-3 2m-199-9a1057 1057 0 0 1 10-210l8-55 6-36c11-76 21-91 56-91q45 0 47 39l1 10-8 38-14 77c-1 8-1 8 21 7h73c12 1 11 3 15-24 8-53 19-102 25-114 14-27 68-29 82-2 7 13 7 26-1 59a931 931 0 0 0-20 100l-7 55-7 86q-1 32-3 33-6 13-4-28l4-74 8-79c2-10 3-23 2-23q-2 0-1-2 1-5-2-5l-2 1-3-1 2-2 3-4h1q3 1 4-5l-1-3q-2 0-1 2 1 3-2 3l-3 1c-1 1-5 1-4-1q2-2-6-2-4 1-3-1 1-3-2-4l-3-1-4 1-3 1q-2 3-2 0l-3-1q-3 0-3-2 0-6-4-7-3 0 0 3t-3 6l-4 2-2-1q-1-3-6-1h-5c-2-3-4 2-8 26-5 21-2 19-31 18a505 505 0 0 0-85 1l-12 1-2-3-1-4-1-3 1-4c5-8 6-36 1-31q-2 2-3-1-5-4-9 0-1 4-3 1l-2-4-2-2-3 2q-2 3-5 1-2 0-2 2t5 2l2 1q0 2-7 2-4 1-4-2 1-3-4 1-9 5-8 2 1-1-1-1t-2-2q-2-2-5 3-2 3-6 3-2 0 1 2v3q-2 5-5 1 0-3-3 0l-2 2-2 3-4 20-2 21-3 27a479 479 0 0 0-8 86l-2 49v33l-2 1q-1 1-3-2m34-269h3l2 1-1-4v-9l-4 1q-5 0-5 7l-1 6 2-2zm20-29q2-2 3-11l9-39 7-10c9-9 5-15-5-10q-21 12-22 61 0 17 8 9m268-19q13-51-23-59-15-4-20-2l-9 2c-15 3-29 14-29 23q0 6 4-2l3-4 6-5c17-14 42-13 59 2q10 10 6 36l-2 11-1 6 2-2q3-2 4-6m-288-7c8-27 10-43 3-33-3 5-9 35-8 38q2 4 5-5m90-40q-1-7-9-16c-5-5-7-6-30-10-16-3-33 3-36 12q-2 5 5 0c9-4 16-6 29-6l12-1 5 3q14 6 20 23l3 8 1-5zm-256 363q-5-1 1-4c12-11 26-18 29-16 3 4-24 21-30 20m751-10 1-7c1-3 11-13 24-21q39-27 70-21 25 5 5-16c-7-8-7-8-1-12 19-9 7-19-22-19q-27 0-60 17l-14 8-1-7c-10-47-38-79-105-119-38-22-45-27-50-39q-10-19 10-30l5-3h11c18 0 24 6 31 26 7 22 13 31 25 38 36 21 81 2 89-38q1-9 6-5h-4l-2 7c-9 39-49 57-86 39-14-7-21-15-28-36q-12-40-43-29c-28 10-20 37 17 58 44 24 80 50 94 67 14 18 32 54 32 65q-1 5 14-3 43-22 79-15 24 7 3 19-8 3 0 9 10 9 10 15c0 6-2 6-19 4q-13-2-29 3l-8 3c-11 0-51 29-52 38l-2 7zm-177 1c-12-5-25-17-28-27q-3-10 2-4c14 17 21 23 34 28 8 3 0 6-8 3m-113-1c-4-5-9-21-10-34-7-65 76-81 91-17 3 15 3 17 1 17-3 0-5-7-3-9h-1l-7-14c-8-20-17-26-36-26q-25 0-36 23l-3 7v12c0 12 2 20 7 33q4 15-3 8m259-4-9-4q-7-1-3-3c4-4 20 6 16 9zm-1282-16q-3-47-36-64l-9-5h-11c-13-1-18 1-26 8-5 4-6 5-12 6q-19 2-6-9 33-27 58-69c10-17 10-17 18 0 19 40 56 68 103 78q16 3 11 5c-3 3-24 13-35 17q-35 12-47 35-8 17-8-2m7 0c10-17 23-27 48-35 12-4 34-14 33-16l-10-3q-73-17-105-80-6-17-9-5c-11 21-40 57-60 74q-13 10-2 9 9 0 15-7c31-28 81 8 84 60q0 16 6 3m5-45-14-13-5-6q-3-2-3-5 1-9-11-10-12-2-20-10l-3-4 2-4q6-18 25 11 6 8 7 8l4 2 6 3c6 1 25 20 25 25 0 4-8 6-13 3m1296 43-1-3-1-2q-2-5 2-6l2-3q0-3 4-4h2q-3-1 0-4 4-5 1-4-2 0-2-2t-2-2q-4-1 2-6c8-6 23-12 23-8l1 1v-1c-2-3 5-8 8-6h5l4-2 3-4c3-7 33-12 47-8l3 1-8 4-8 4v3l-1 3 6 4 7 6 2 2h-24l-2-3q-5-3-5 1 0 2 1 1h2q0 2-3 2a193 193 0 0 0-64 37q-2 2-4-1m-355-6q-4-6 4-8l3 2 2 3-2 2q-3 4-7 1m200-1c-12-4-18-13-24-35l-6-17c-6-13-6-13 13-3 32 18 43 28 44 41 1 12-12 19-27 14m19-2c19-9 5-29-37-52-15-8-15-8-10 3l7 19q5 21 17 28c5 4 17 5 23 2m-594-2-4-5 3-3 4-5q1-1 3 2l3 4 3 2-4 5c-5 5-4 5-8 0m717 2q-7-2 2-11l6-4 3 2q4 1-2 9-3 6-9 4m-681-3 6-8 6-9 4-6a216 216 0 0 0 28-184q0-11-3-7h-4q-2 2-3-1-3-5 2-3h5l-2-2q-2 0-2-2c0-4-7 0-7 4q-1 3-5 2l1-3 1-2-3 1-4 2h-1l-2 2q0 2-2 2-3-1-5 2l-3 2q-4-3-6-1 0 3-3 2-4-1-3 3l-1 3q-2 0-2-3 2-4-4-1-3 0-2 4 1 2-2 3-5 2-2-1v-3l-1-4v-3l-2 3-1 4v6q-3 2 1 21c4 25-1 63-13 89-11 25-45 60-58 60q-7 0 8-12 58-42 55-115c-2-72-51-113-115-97-7 2-8 2-10 16l-6 35a1028 1028 0 0 0-10 184q2 7 40-2c18-4 25-3 13 3-5 3-19 5-28 6l-10 1q-11 3-17 0l-3-1-1-7a1001 1001 0 0 1 4-178q6-20-6-21-4-1-4-3-1-3-4 0l-3 1q-2 0-5 2-6 3-4-3 1-4-3-4l-1 2q0 3-2 3-3 1-2-2v-3l-1 1-2 2-1 1q0 4-5 4h-14l-5-2h-4l-2 9-5 32c-6 36-9 81-9 124 0 38 0 38-4 35l-3-2 1-50a1025 1025 0 0 1 14-181l1-4 5-3q6-2 12-7l6-3c-3 6-1 22 3 24q9 5 11-18l8-42q2-12 9-20c12-11 0-16-12-6-7 6-7 6-10-6q-2-4 13-13l4-3q-6 0-22 11l2 7 4 11q0 5-1-1l-5-11-3-6 5-4c19-17 46-18 62-3l7 6 7-1c93-16 176 41 196 134 13 59 3 134-23 170l-6 12c-5 8-17 24-21 26q-5 3-6 0m-216-220q4-8-5-9-7 1-3 9 4 3 8 0m260-17q0-5-4-12l-7-12-3-4h-1q-2 1 1 4l2 5 2 7 4 9 6 8zm-107-8c-9-7-10-8-16-8q-9-1 3 4l12 6q10 6 1-2m-28-13c0-3-32-5-39-3q-12 2 11 3l20 1zm110-24c-7-11-25-27-38-33l-9-5c-2-3-8-5-10-5l-2-2c-12-10-61-18-89-14l-15 1h-6l-4-5c-7-7-26-11-37-8q-6 2 9 2h9l7 6 11 8c4 3 5 3 26 1q41-4 86 12c15 5 27 14 55 40q15 17 7 2m578 268q1-31-43-57l-24-14c-55-33-77-53-87-82-44-114 80-218 196-165 14 7 36 24 35 27q-1 3-1 0c-3-7-30-24-39-24h-4l3 2 8 5 6 4 7 5q5 3 10 8 6 6 7 4l-2 7c-10 31 8 72 33 72 5 0-4 22-11 29-27 24-63 12-75-25-12-38-50-51-76-26q-40 41 44 89c55 32 77 51 92 81 8 16 15 45 11 46q-4 2-3-6v-3q-1 2-3-4c-17-49-36-70-90-99l-33-20-10-6-10-5q-6 1-7-3 0-3-3-2l-1-3v-2h-4q-9-1-3-6l4-3-2-6-2-8-1-6q-1-8-7 1l-2 4h-4l-5-1-3 1h-3q-4-2-3 2t-2 1l-3-1 3-2q4-3-3-4l-5 1 2 3 2 1v2l-2 1h-4l-3 1v-2l2-5 2-1h-3q-3 0-5-3-3-3-5-1l-5 2-1 1-2 1-3 1c-1 3-9 6-11 5l-2-2 1 6c3 21 6 32 14 42 19 27 34 41 57 54 65 36 85 55 87 83v7l-3 2-3 2zm87-178q9-4 9-8 0-5-6 1l-9 6q-7 3-5 5 3 1 11-4m-13-4 4-4q1-3 1-1 1 5 9-4c9-9 11-18 4-17l-1-1c-3-4-11-5-9-1q1 6-4 7l-5 2-4 3-1-2q-3-3-2 0c1 4-10 10-12 7l-2-1-2 2-3 2-1-2q-1-3-3 1l-1 2q-2 0-2 3l6 4 5 3 10-1zm-201-24c6-3 3-11-3-11s-8 7-2 10q2 3 5 1m59-10q18-35 58-25l9 2 3 1-2-3c-11-17-60-5-70 17-6 13-4 20 2 8m-47-23q25-39 50-47c15-5 13-18-2-15-26 6-59 41-59 63q2 12 11-1m-22-24 6-8q7-9 9-13c0-5-17 11-19 17l-2 6c-4 6 2 4 6-2m110-35q4-8-4-11-7-1-7 7c0 5 7 7 11 4m-60-11c16-8 41-16 50-16a388 388 0 0 1 57 3c-1-5-36-9-50-7l-25 4c-15 3-35 10-42 17q-8 8 10-1m-522 302-5-6-4-3 5-4 5-6q1-5 4 0 0 4 4 6c4 4 4 4 0 8q-4 2-4 6-2 5-5-1m6-5 4-5-3-2-3-4q-1-2-5 3l-5 4 4 4c5 5 4 5 8 0m-275 4 5-1 1-45a788 788 0 0 1 11-150l2-23 1-6-3 1q-7 3-1 0c6-3 6-3 4 13a1114 1114 0 0 0-13 180v31zh-6zm124-10c-4-33 10-191 19-200 6-7 40-3 56 5 29 15 47 66 38 105-13 51-62 94-108 95h-4zm15 2c60-13 98-58 98-116s-33-93-82-88c-12 2-12 1-15 17a872 872 0 0 0-14 184v5h2zm1-19a1070 1070 0 0 1 15-167l1-3 8-1c60-3 81 96 31 145-20 19-53 35-55 26m12-1c65-22 94-112 49-154-15-15-44-21-46-9-10 63-13 99-13 147 0 21-1 20 10 16m15-27-4-1-4-4-3-4 1-19a459 459 0 0 1 9-77c3-22 19-19 35 8 6 8 6 33 2 51-5 19-9 24-25 41q-5 5-11 5m12-20 6-7 4-4c4-4 10-39 8-49-7-37-25-29-29 12q-7 63 11 48m107 42c-4-5 1-12 6-9q3 1 3 4c1 5-5 9-9 5m397-21 3-25 4-35q2-26 11-3c7 14 15 24 30 39 18 17 18 16 0 16-16-1-26 1-38 6q-10 4-10 2m11-4c11-5 18-6 34-6h15l-13-13q-21-21-31-40c-6-12-6-11-8 6l-4 31c-4 27-4 26 7 22m-904-98c-16-4-17-44-1-51 14-7 26 5 26 26 0 19-10 30-25 25m15-3c18-12 6-56-14-48-14 7-17 39-4 48q9 5 18 0m-318-2 4-27q3-14 6-1c1 6-1 17-5 24q-5 9-5 4m7-12c2-6 2-18 1-20q-2-3-3 11-3 25 2 9m1365 3q-30-21-14-27 18-9 25 17c8 22 8 23-11 10m15 6c0-3-9-26-11-29-5-7-24-4-22 4 2 6 33 30 33 25m186-26q33-13 26-38c-2-6-2-6 5-10 31-20 41-70 15-78-4-1-4 0 0-10 15-35 7-75-16-75-10 0-15 3-34 24l-2 1c23-26 31-31 45-25 17 8 21 50 8 77q-5 6 1 8c25 10 14 59-17 79l-5 3 1 4c2 13 2 17-4 25q-10 13-26 16zm-12-13q3-4-2-6-2-1-2-3l-1-8-1-10-1-4-2-5-2-4-3-2 1-4 1-3q0-1 0 0l-4-5q-8-11-11-12c-2 0-5-5-5-7v-12l-4-2-4-2v-4q0-7-5-7l-2-1-2-1c-9 2-6-1 21-22q20-14 28-24c29-32 31-34 36-36 5-3 12-1 13 5q4 7-3 6c-7 0-9 1-17 9l-19 15c-19 14-22 18-19 21l2 3 1 2v3l2 9 2 9 4 2q3 1 3 4h1q2-1 5 3l4 4-5 4c-10 11 0 7 21-6q27-19 28-4v3h-6l-11 2-13 5c-7 2-14 7-13 10q0 5-1 4l-1 2q-1 3 3 3v1q-4 7 2 12l3 5-1 4 1 4c4 1-9 6-18 7q-16 3-6 4c32 2 41 14 19 25-7 4-19 6-17 4m-1029-44h-3l-1-1q-2-1 1-3 5-2-2-3-6-1-2-4v-2c-2-2-1-8 1-8s4-5 3-7v-2h2l1 2q3 1 2-5-1-8 3-7 3 2 0-3l1 1q6 4 5 13 0 8 4 2c6-7 2-22-7-27l-4-4-3-2q-5-2 4-2h4v-3q0-4 2-3 2 2 8-6l2-3 4 5c7 9 15 24 12 22q-3-1 0 5 1 2 1-1v-3l1 3c3 12-2 31-10 40-4 4-13 10-11 6h-18m-946 233 8-3 11-1q36-1 29-38l-2-7 3-7c8-21-3-39-26-40l-8-1-6-6c-17-15-35-10-45 12q-4 7-8 10c-15 11-19 17-18 28 0 9 3 13 14 24q4 2 5 10c5 21 22 29 43 19m-16-24v-4q-1-11-9-17-17-9-9-13 7-3 3 1c-6 6 22 13 40 9l4-1 4-9c6-11 6-12-5-11q-12 0-13-3c0-2-9-11-10-10l-1-2q0-5 10 6l6 7 8-1q20-3 10 12c-5 9-5 12-2 19q6 11-2 9c-16-2-21-1-27 6q-4 3-7 2m10 125c7-3 5-17-3-17-3 0-11 7-11 10 0 5 8 9 14 7m-24-19c26-11 17-49-10-49q-25 0-25 25c0 19 18 31 35 24m-24-29q-3-4 1-10c4-5 13-2 13 3 0 6-10 11-14 7m10-2q4-7-4-8c-4 0-7 6-5 9q4 1 9-1m280-33 3-4 4-4 14-20c0-2 18-24 27-32l19-20c8-8 1-20-14-23l-6-2q-8-5-15 5a103 103 0 0 0-15 31l-4 13-3 9-4 10-3 10-1 6-2 10q0 8-2 9-2 3 1 4zm1036-313 5-5 2-7q6-9-7-5-7 3-15 3-13 1-5 7l7 6c7 6 8 6 13 1m-1-19q17-7 24-30c5-15-4-38-14-38l-2-1-1-1-9-4q-10-6-13-3h-3c-2-3-17 2-24 7l-11 17c-4 8-3 27 2 32q4 2 4 6 4 9 11 13c12 4 13 5 22 4zm-33-45q-6-4-3-14c6-11 24-7 22 6-1 6-13 12-19 8m12-2c6-4 7-13 1-15q-9-5-13 3c-6 9 3 17 12 12m-951 664c-18-3-31-19-31-36 0-55 2-61 21-70 13-7 37-6 47 1l8 4 5 1 11-5 11-6h44l7 3 9 4q7 5 15 1l6-3c9-4 22-1 28 7q6 7 14 1c11-9 12-9 18-9q6 0 11 3c11 8 15 8 25 1l6-3 5-2c2-2 5-2 18-2 20 0 22 1 40 13q12 8 20-1c7-8 18-14 22-12l6 3q4 2 9 9c8 10 8 10 18 2l7-5q3-1 5-3c17-14 63-5 70 13l2 5 5 10 4 9v9c0 54-55 79-95 43-8-7-9-7-15-1-12 14-28 16-36 5-10-13-12-13-23-3-20 18-59 19-75 2l-7-6-2-2-5 4c-40 34-92 14-92-35 0-23-13-10-14 14 0 12-1 13-6 22-17 24-44 10-45-24q-2-28-12-25l-2 1v32l-3 8c-8 19-30 28-54 23m30-11q10-5-1-2c-7 2-23 3-29 1h-3c4 4 26 4 33 1m169 0c5-1 14-4 13-5l-4 1c-11 6-31 5-43-1l-7-3 5 4q11 10 36 4m248 0 2-2q-16 4-34 0-11-3-3 1c7 4 28 4 35 1m-154-1 3-1h-5c-10-1-27 1-27 2 0 2 25 1 29-1m-265-3q19-6 19-24c-1-14-8-20-30-26q-14-4-14-6c-6-10 10-13 22-5q10 6 15 0 7-10-8-19l-5-3h-26l-7 3c-27 14-18 40 17 48q19 5 10 13l-3 3-6-1q-6 0-12-4c-10-8-21-7-21 3 1 15 26 25 49 18m77 0 2-3 1-29c0-35-1-30 10-30h9l2-3c5-5 4-14-1-16h-62l-3 2c-8 9-1 17 13 17 10 0 10-3 10 30l1 30c2 5 14 6 18 2m97-1q12-3 19-16l2-5v-57c-3-5-13-6-19-2l-3 3v26c0 33-1 35-14 35s-15-7-14-41l1-19-3-3c-4-5-13-5-17-1l-3 2v58l3 6c7 14 28 20 48 14m162-1 2-2 1-36-1-38c-3-6-13-8-19-3l-2 3v74l3 3 3 3 5-1q6 0 8-3m86 1c31-12 31-64 0-79-35-16-69 16-58 55 6 22 33 33 58 24m-25-17c-14-5-17-34-4-44 8-6 22-2 26 7 10 19-4 44-22 37m13-2c15-6 14-38-2-42q-21-4-21 23 3 25 23 19m-12-6c-7-3-9-15-4-22q8-9 17-1c10 10 0 29-13 23m-126 23c29-11 29-61 1-75l-7-3h-19c-28-1-26-4-27 42v34l3 2 3 3 20-1c17 0 22 0 26-2m-29-17c-1-2-1-42 1-43 3-2 16 0 20 3 10 7 10 29 0 37l-4 4h-8zm20-4c15-10 6-38-12-37h-7v20l1 20c1 2 15 0 18-3m51-13v-26l-1-5-2 4-5 13-2 2q-2 1-2-2c-1-4-11-19-15-22q-8-7-2 1c10 11 14 34 8 52l-1 2 5-3 5-3 2 2q3 1 6 8l3 6 1-4zm-117 24 4-6 2-4c2-3 1-31-1-37q-4-18-5 23l-1 18q-5 14 1 6m-113-11 1-16 1-6 6-7c6-7 6-7-3-8h-7v21c1 30 1 29 2 27zm134 6v-49l-1-5-3 4-2 5-2 5-1 5v22q0 5 2 10l3 7q3 6 4-4m-163-19c1-27 2-25-11-23l-2 1 2 3 5 10 3 5v13q0 17 2 15zm292 19 4-6q5 0 9 5 6 9 2-4c-1-6-2-10-1-20v-13q-5 2-8 6c-1 4-6-1-6-6 0-3-4-8-5-6l-1 42q1 14 6 2m-355-2q6-8-9-11c-9-1-21-6-26-10q-7-7-6 6l1 8 7-1 5-1 9 6 8 6 5-1zm175-1c4-3 4-6 4-23q-1-30-5-1c-3 18-13 19-13 0l-1-11-2-8q-2-14-3 17c0 22 0 24 7 27 4 2 11 1 13-1m-46-19c1-33 1-38-6-32q-6 3-1 19l3 11 2 16zm-106-6v-12l-3 1q-8 3-16-3c-9-6-20-6-20 1 0 3 2 5 15 8l18 6q10 6 6-1m75-38c3-4-37-6-42-3q-2 1-2 3zm-212 85v-3l4-10q5-14 17-21c12-7 12-7 12-9 0-3-1-4-11-8q-12-5-16-14c-3-6-5-17-3-16 3 0 15 9 20 15l7 6 1 2 1 3 3 7q0 5 2 5c3 2-2 13-10 20l-7 10-8 10-4 2q-5 4-8 1m-15-2c-4-2-24-27-26-32q-3-8-2-11l3-6 6-9 8-10c4-5 12-10 16-10q4 2-2 14-4 11-22 18l-6 2 1 3q-1 4 7 7c13 6 18 12 23 27q5 13-6 7m1408-17q-3-11-13-15-9-5 1-9 9-2 12-14t8 1c3 8 4 10 12 14q11 4 2 7-11 5-14 15-4 13-8 1m6-3q4-9 12-13 6-3 3-4c-9-5-11-7-14-13l-3-6-3 6c-4 7-5 8-11 11q-7 3-2 4 8 5 13 14 2 10 5 1m-1404-2c-6-9-7-11-11-14-7-5-7-5 0-10l8-10c4-7 5-7 11 2q4 6 9 9c5 5 5 5-1 9l-8 8-5 7-1 2zm6-10v-3h1c2 1 8-5 7-7q-12-20-15-13l-7 9-5 5 4 3 7 6q5 5 8 0m638 6q-3-6-7-9l-6-4-2-2 3-2q9-7 13-13 3-9 8 1l8 10 6 4-6 6q-7 6-9 11-3 10-8-2m14-9 5-5-5-6-8-8-1-3-2 3-8 8-6 6 3 1 8 7 5 6 2-2q1-3 7-7m1098-321-3-8q-2-8-12-12-11-4 0-8 9-2 13-14t7-1c4 10 5 11 12 15q12 5 1 8-10 2-12 15-4 10-6 5m4-7q3-10 11-14l5-3-6-3q-6-4-8-10-4-11-7-2t-11 13q-8 3-1 4l7 5q4 2 6 11 2 5 4-1m38-31-4-3 3-3q4-6 7-1 5 4 0 8l-3 3zm-456-252c-20-8-22-35-3-45 6-3 17-3 22 0 27 14 9 56-19 45m17-2q6-2 9-12c8-20-13-38-29-27-4 3-4 4-8 13-7 15 10 30 28 26" style="fill:#cdf0f8" transform="matrix(1.2 0 0 1.2 -304 -2100)"/><path d="M1745 2757a224 224 0 0 1-70-19q-24-9-34-6c-19 8-57 15-79 15q-76 1-65-54c3-16 3-14-5-30q-19-40-37-22c-10 8-15 11-26 14l-17 5c-6 2-8 3-16 3h-10l-8-4c-13-6-17-6-32-6l-13-1-8-2-13-6-14-9q-28-14-21-53l3-27 1-17-3-7-5-14q-4-14-10-15l-5-2-3 2-6 5c-25 33-78 68-119 80-50 14-78 9-111-20-16-14-16-14-50 5-19 10-33 13-60 13-22 0-35-2-62-9-34-9-53-9-81 2-61 22-112-17-113-87v-16l3-10c10-31 24-51 56-85 31-31 34-40 18-45l-30-14c-14-8-21 1-41 56a396 396 0 0 0-29 134c-2 21-5 33-15 53l-6 12-8 7c-35 32-104 29-133-6-25-28-30-57-22-112q3-21 0-25-10-8-25-2-38 13-59-26l-11-17c-8-10-10-15-10-29v-11l3-7 10-14c21-22 23-29 13-44-26-37-33-124-13-165 21-46 74-62 119-38l8 5h7l17-1 36-4c27-3 61-7 71-10 42-11 64-8 94 14 19 13 16 13 39 1 62-32 119-36 179-10 16 7 29 17 54 40 11 10 16 9 31-6 42-42 110-62 174-52 30 5 34 3 34-19 0-70 57-99 102-52a637 637 0 0 0 61 57c20 14 20 14 36 10q34-10 68 4l11 5h8c55-1 81 6 136 36l11 6 12 13q13 13 18 16l5 3 4-1c6-2 7-3 12-16 27-71 123-83 163-21 13 20 19 64 12 85-3 9-4 23-1 23q4-1 5-8l1-5 3-8 2-9 5-18 2-8 4-9c2-8 5-17 7-19l6-10c30-48 93-56 143-18 16 12 21 11 53-9a200 200 0 0 1 181-6q15 8 25 5c11-4 55-42 70-61 48-60 116-22 107 60-2 13-1 17 4 31 9 25 0 65-18 84q-8 9-12 20-15 49-74 53c-18 2-25 6-34 17l-8 7c-25 16-26 23-10 49l7 11q5 12 24 6c53-14 96 3 96 38v17c0 25 0 24-3 30q-5 12-18 18l-8 3-14-1c-34-1-41 5-33 26 16 47-24 98-74 94-23-2-26-1-42 20-16 20-46 45-67 55-15 7-43 14-63 15l-12 1-11-3c-30-7-58-23-71-40-22-30-35-27-84 21a537 537 0 0 1-58 53c-4 4-40 23-62 32-17 7-74 13-99 10m64-4c56-9 97-34 162-100 39-40 51-43 70-23q22 25 33 31c63 39 144 18 199-52q14-19 20-22l4-1 8 2c41 13 84-21 84-68v-13l-5-11q-5-11-5-14c1-6 19-13 32-12 24 2 29 2 38-5q17-14 12-38v-11c11-41-40-64-99-43-15 5-14 5-22-10l-12-21c-13-20-14-18 8-34 16-12 22-18 26-27l2-4 18-1q67-1 79-53c3-9 4-11 10-17 23-24 30-63 17-91l-4-9 2-11c10-60-21-102-66-89-15 4-21 9-44 34-16 18-42 40-59 52-12 7-10 7-21 1a195 195 0 0 0-213 15c-15 11-16 11-26 0a89 89 0 0 0-68-29h-15l-10 3a89 89 0 0 0-63 59l-11 42c-10 48-11 53-20 53h-4v-4c0-4 6-41 9-51 9-40-10-88-42-103-57-27-119 0-134 59q-2 12-9 13l-4 2-2-3-17-16c-41-43-99-65-159-62l-14 1-10-5a94 94 0 0 0-72-4l-11 3-3-1-40-30q-13-10-39-39c-47-52-107-16-99 59l1 14-2 2c-3 2-5 2-18-1-43-10-79-9-117 3-31 10-55 25-80 52-16 17-13 17-24 4-59-70-169-83-247-27-11 8-10 8-20-2-26-26-51-33-95-22-24 5-71 11-114 15-21 2-23 2-31-4a87 87 0 0 0-87 1q-55 35-37 147 5 37 25 58 11 16-15 37c-21 18-23 43-5 62 6 7 8 9 10 16q7 19 21 25l6 3h25l7-3 7-3h20l2 2-2 18c-7 47-8 60-3 78 11 49 46 76 96 73q81-3 85-100c2-50 17-102 53-183 4-11 7-11 22-1q16 12 33 15c20 5 20 5-14 39-32 32-43 46-55 70-40 82 21 163 100 132 16-6 23-8 39-8 15 0 13 0 52 9 56 13 94 8 129-17 17-13 18-14 22-8 9 15 34 34 51 38 53 14 135-22 186-81q16-18 18-17h2l5 13 8 24 5 11-1 8-1 14-3 17q-8 40 17 52l14 10c14 11 26 13 45 9l6-2 10 6q23 15 41 5l16-5q20-3 32-22 8-14 12-2c3 6 10 14 13 17l6 9 8 16c5 10 5 9 1 19-22 51 49 71 139 40l12-4 6 2 17 7c21 9 48 17 67 19 11 2 53 1 68-1m55-31c30-15 54-34 92-72 50-50 68-57 90-32a139 139 0 0 0 64 47c-16-3-40-19-56-37-19-22-21-23-33-22-17 1-29 9-66 46-39 40-89 77-103 76zm342-71 5-4c16-9 41-33 58-54q9-12 16-18c9-7 9-7 16-4l11 6 3 1-11-4-9-5-4 3q-10 7-22 22c-11 14-35 39-46 47-8 6-17 11-17 10m-436-10q-12 0-1-24l8-23 7-13c15-9 20-13 28-20 20-21 26-42 27-94 1-51 3-56 16-53 6 1 6 2 5 48-1 64 1 78 18 105 8 11 8 12 3 18-23 29-81 60-107 56zm34-7c22-7 58-30 68-43 7-10 7-17-1-33-12-24-14-37-14-86 1-41 0-42-4-44l-3-1-3 2c-4 5-4 6-5 34-2 37-2 42-5 53-7 27-18 44-39 59-14 10-14 11-25 36-7 16-7 20 1 24 5 3 20 3 30-1m36-2c17-9 33-22 56-44 11-12 11-11 5-16-13-9-30-37-26-41l2 6q8 21 24 35 4 3 6 5c0 3-38 38-52 48l-24 14zm334 2 1-2q2-2-3-4-4-2-4-5c-1-3-8-9-8-7q-2 3-5 1-3-1 0-2c32-11 60-38 93-91l7-10q-6 16 5 8l1-2-2 1q-3 1 0-2 2-3 10 3l8 4q4 0-3-2l-8-6 3 1 8 5q7 0 2 5c-29 49-50 75-79 94-10 7-26 14-26 11m67-49q13-16 8-16l-4-1-3-1-4-3c-6-5-18 0-22 10l-2 3 1 2 4 2 3 2q0 3 2 2h2l8 6q2 0 7-6m-847 36-8-24 4 3q13 9 26 11 15 2 0 3-10-2-16 5-4 5-6 2m130-2q-1-7 10-12c17-9 18-26 2-35-13-7-13-9 7-16l18-6q6-4 4 6l-1 5v-10l-36 12q-2 3 8 8c18 9 17 28-2 37q-11 5-9 11v2zm133 0 11-7q16-11 26-25 10-16-9 2-13 15-19 14l2-1q7-2 16-13c12-13 19-14 11-2a105 105 0 0 1-38 32m-322-10q-4-7-13-10l-6-3q-1-1 0 0h2l-2-2h3q23 3 37-4 6-4-6 11-10 12-13 12zm79-9c-13-2-21-9-13-10l4-2q0-2 2-4c5-5-2-13-12-13s7-10 20-11h5l-5 1q-8 2-2 3l5 2 5 2h3l1 5q1 9 3 2l-2 8-2 10q-1 10-12 7m-904-11c-24-7-52-38-51-56l2 5c8 25 28 45 52 50l6 2zm57-3q38-14 46-56l2-8-1 6c-2 28-27 56-52 61q-3 0 5-3m755 0q-6-4-3-11l1-13q-1-26 24-11c14 8 22 19 9 14q-7-4-12 0c-5 5 0 13 10 15h4l-5 2q-19 9-28 4m10 0-2-1q-10 1-7-12v-20q2-5-1-2l-3 28q1 5 6 7zm37-4c-7-3-2-17 5-16q8 0 6 9 0 10-11 7m-250-8c83-23 146-88 178-181l5-14a288 288 0 0 1-127 174 269 269 0 0 1-56 21m-67 0c-20-8-41-37-41-56q0-8-8 4c-11 19-36 40-52 43q-2 0 5-3c18-7 37-23 47-42l7-10 2 8c4 25 21 48 44 56l4 2zm716 2q-1-4 9-7 29-11 41-41l3-6-2 7q-13 30-42 41l-8 5zm373-3c-88-14-154-126-98-167 28-21 64-5 74 32 11 42 49 63 83 46l4-2-1 4v4-3l-1-3-3 3q-5 5 1 5 10 1-8 5-61 11-85-54c-9-26-17-34-35-34-64 0-44 101 28 140 26 14 70 21 98 16q21-5 4 6l-4 3h-24zm-66-36c0-3-15-18-18-18q-7-1 3 9 14 16 15 9m84-46q1-1-3-3c-13-5-20-11-34-28-5-7-3 5 2 13 9 12 30 23 35 18m-119-1-2-8c-5-13-7-21-7-33v-12l3-7q11-23 36-23c19 0 28 6 36 26l7 14h1c-2 2 0 9 3 9 2 0 2-2-1-17q-9-38-40-39c-41-2-61 31-48 74 5 14 12 23 12 16m-1148 80-16-3zh19q18 0 16 1c-6 1-29 0-35-1m1046-22c-35-5-41-35-33-157q3-27 1-27c-1-2-61-1-88 0h-9l9-1 50-1h40v12l-2 22-1 39-1 30 2 1 3 4 1-12 3-74 2-18v-11h-103c-22 1-20-1-21 30l-3 79q-1 40-6 48c-3 5-13 15-17 17q-4 2 0 3 27 3 29-65l2-8c-3 62-10 76-43 78l-8 1-4-5q-8-8 0-5 18 4 32-8c10-10 11-13 13-64l1-67-1-4h-4l-7-2-6-1h-3l-2-1h-10l-3 1h-9q-3 3-7 2l-1 2c1 2-4 3-7 2q-4-2 1-2h4q2-3-5-3h-3v-2q0-3-2-2l-1-1h-1a5139 5139 0 0 1-5 54c-3 29-2 72 2 79q3 6-2 5c-11 0-16-47-10-106v43c0 47 0 51 4 50l2-1v-33a617 617 0 0 1 4-79 479 479 0 0 1 9-83 191 191 0 0 1 8-44l2-2q3-3 3 0 3 4 5-1v-3q-3-3-1-2 4 0 6-3 3-5 5-3-1 2 2 2 2 0 1 1 0 3 8-2 5-4 4-1 0 3 4 2 6 0 7-3h-2q-6 0-5-2-1-2 2-2 2 2 5-1l3-2 2 2 2 4q1 3 3-1 5-4 9 0 1 3 3 1c5-5 4 23-1 31l-1 4 1 3 1 4 2 3 12-1 23-1c14-2 43-2 62 0 29 1 26 3 31-18 4-24 6-29 8-26h5q5-2 6 1l2 1 4-2q6-3 3-6t0-3q4 0 4 7 0 2 3 2l3 1q0 3 2 0l3-1 4-1 3 1q3 1 2 4-1 2 3 1 8 0 6 2c-1 2 3 2 4 1l3-1q3 0 2-3t1-2l1 3q0 6-4 5h-1l-3 4-2 2 3 1 2-1q2 0 2 5-1 2 1 2c1 0 0 13-2 23l-2 16-2 15-1 18-5 65-2 39q-2 41 4 28l3-33v57c0 37-21 57-55 51m20-10q18-5 23-19c1-7 4-34 3-42l1-48c1-43 1-43-4-40l-4 1 1 1q4 4-3 3l-6-1-1-2q0-5-10-4l-5 1-2-3q-4-3-4 1h-1l-3-1q-1 1-3-1h-3q-4 3-1 4t0 3l1 1 1 2q-3 1-5-2c0-2-5-4-5-2l-4-2q-2-2-3-2-2 3-2 0 0-4-2 5l-1 18c-4 42-4 104-1 112 6 16 25 23 43 17m-16-12-1-4c0-4-1-4 10-13q9-7 9-20c0-11 9-16 13-8 7 20-16 54-31 45m13-2q18-12 17-34c0-16-10-16-11 0-2 13-4 16-15 25-10 8-2 16 9 9m10-60q-5-4-2-8c4-6 12-4 12 2 0 5-6 8-10 6m7-3 2-2-2-3q-6-5-8 3 2 7 8 2m17 57c4-9 2-30-2-26-1 2-4 27-2 28q2 4 4-2m-81-10 1-3c1-1 1-17-1-19l-1-3q1-3-1-2c-2 0-2 8 0 11v4c-2 1-2 13-1 14q2 1 3-2m-449 27q1-7 13-9c61-5 134-44 161-84l8-11c9-11 22-39 21-43q0-2-7-2l-6-1h-3l-4-2-8-2q0 4-2-1-4-4-4 0 1 2-1 1l-4 1-4 1q-4-3-6 0l-1 3q-6 1-6-3l-5-1h-5l-1-2-2-2v1h-1q-2-1-4 3-39 56-102 66-35 6-38-2l-3-43c-1-29-2-33-10-27q-5 5-7 2h-4l-2-1-3-1-5-1q-2-1-2 1l-1 3-2-2-4-1q-6 3-9 1l-6-1-6-1h-2v1q0 2-4 0c-3-2-3 0-3 34l-2 33-5-3-4-2 1-53 1-63 1-9v12l-1 62-1 50 3 2c4 3 4 3 4-35a915 915 0 0 1 14-156l2-9h4l5 2h5l4 1 5-1q5 0 5-4l1-1 2-2 1-1v3q-1 3 2 2 2 0 2-3l1-2q4 1 3 4-2 6 4 3 3-2 5-2l3-1q4-3 4 0 0 2 4 3 12 1 6 21l-2 17-1 23c-4 41-4 122-1 138l1 7 3 1q6 3 17 0l10-1c13-1 35-7 34-10q-1-3-19 1-38 9-40 2l2 1a135 135 0 0 0 133-95c4-15 5-20 5-37l1-18v15q2 70-55 111-15 12-8 12c6 0 21-11 36-27 27-29 42-82 35-122q-4-19-1-21v-6l1-4 2-3v3l1 4q2 2-1 3l-1 2 3-1h3v-3q0-4 2-4 6-3 4 1 0 3 2 3l1-3q-1-4 3-3 3 1 3-2c0-1 5-1 6 1l3-2q2-2 5-2 2 0 2-2l2-2h1l4-2 3-1-1 2-1 3q4 1 5-2c0-4 6-8 7-3l2 2 2 1h-5q-5-2-2 3 1 3 3 2l2-1h2q3-4 3 7l1 8a216 216 0 0 1-40 190q-9 13-3 10c5 0 18-13 25-27l6-12 11-21q14-31 1 1a232 232 0 0 1-200 137zm55-9q8-1 14-4l6-2-3-1c-4-2-31 3-35 6q-5 6 18 1m70-29c10-5 21-15 20-17-3-2-17 5-29 16-7 5-1 6 9 1m794 23q0-20-18-32c-9-6-9-6 1-13q33-22 56-18 5 1-5 1-22-1-51 18c-9 6-9 6-1 11q12 8 16 18c2 6 3 20 2 20zm-506-40v-19zm-224 31-11-6 8-9 17-19q13-17 10-2v7-7c-1-8-1-8-10 2l-24 28zl10 6 7-5 7-5q0-3 0 0c1 1-12 11-14 10zm653-17-4-5-4-4 3 2 3 2-1-2v-3c0-1-7-5-13-6q-3-1-4 2-3 4 2-5c30-46 93-79 136-72q9 1-1 5c-15 7-16 8-5 16l7 6v1l-9 1c-32-1-78 25-106 58q-2 4-4 4m34-33a193 193 0 0 1 56-31h-2q-1 1-1-1 0-4 5-1l2 3h24l-2-2-7-6-6-4 1-3v-3l8-4 8-4-3-1c-14-4-44 1-47 8l-3 4-4 2h-5c-3-2-10 3-8 6v1l-1-1c0-4-15 2-23 8q-6 5-2 6 2 0 2 2-1 2 2 2 3-1-1 4-3 3 0 4h-2q-4 0-4 4l-2 3q-4 1-2 6l1 2q0 4 5 4zm-19-6q6-8 2-9l-3-2-6 4q-12 11 2 11 2 0 5-4m-1033 16c-1-18 22-44 44-51l6-2 1-31v-31 30c1 34 1 32-7 35-19 6-37 25-42 43zm42-6-1-2 4-4 5-5q0-3 3 0l2 1q5 0-3 6l-6 5q-1 3-4-1m267-3-5-6q-4-4 0-6l4-5q3-8 6-1 0 3 4 6 6 3 0 5l-5 6q-3 8-4 1m6-5 4-5-3-2-3-4q-2-3-3-2l-4 5-3 3 4 5c4 5 3 5 8 0m-585 2c-1-20-17-45-35-54l-5-3c1-1 15 8 20 13 11 11 22 36 20 45v2zm-339-3c-1-15 41-64 92-107 20-17 34-32 29-30-13 6-29 8-40 7l-7-1h13c13 0 21-2 32-6q14-6-25 29a340 340 0 0 0-94 108m1547-15c-2-27-10-36-59-65-53-32-71-46-85-67-7-12-17-37-16-44l2 7c10 41 29 61 93 99l24 14q44 26 43 57l1 5q1-1 0 0-1 5-3-6m7 3c2-2 0-17-3-23-8-20-30-37-83-67-23-13-38-27-57-54-8-10-11-21-14-42l-1-6 2 2c2 1 10-2 11-5l3-1 2-1 1-1 5-2q3-2 5 1t5 3h3l-2 1-2 5v2l3-1h4l2-1v-2l-2-1-2-3 5-1q7 1 3 4l-3 2 3 1q3 2 2-1-1-4 3-2h3l3-1 5 1h4l2-4q6-9 7-1l1 6 2 8 2 6-4 3q-6 5 3 6h4v2l1 3q3-1 3 2 1 4 7 3l10 5 10 6 14 8 19 12c54 29 73 50 90 99q2 6 3 4v3q-1 7 3 6c4-1-3-30-11-46-15-30-37-49-92-81-33-19-55-39-54-50l2 4c6 16 23 29 63 52 57 31 83 62 94 108 2 12 2 13-3 16q-5 6-6-5c-2-14-9-27-14-26l-29-2v-4q3-6-4-4-5 1-8-1-5-3-11 0h-18c-3-2-12-1-15 0q-1 2 6 9 17 18 18 36 1 8 3 7 4 2-2 3zm-614-5-2-5-4-4c-5-4-5-4 0-8q4-3 5-7c2-7 7-7 7 0q0 4 6 8 7 3 1 6-5 2-8 9-2 7-5 1m5-3q1-4 4-6c4-4 4-4 0-8q-4-2-4-6-3-5-4 0l-5 6-5 4 4 3 5 6q3 6 5 1m-599-3a85 85 0 0 0-49-45c-14-5-14-4-5-17 13-19 13-19 25-2q9 14 37 34c26 19 26 21 12 29q-9 6-13 6l-4 1zm15-8c6-3-13-26-23-28l-6-3-4-2q-1 0-7-8-19-29-25-11l-2 4 3 4q8 8 20 10 12 1 11 10 0 3 3 5l5 6q14 19 25 13m-644 0q-14-5-18-23l-2-7-7-7q-9-10-10-17l1 3c2 6 4 8 11 15 5 5 6 6 8 13q6 23 28 24l7 1 9-5 9-4 9 1h8-17l-9 4c-11 5-17 6-27 2m679-14c-36-12-68-40-85-74q-6-16-9-4c-11 21-39 55-58 71q-14 11-4 9c7 0 9-1 14-6 9-8 26-12 39-8q10 4-3 1-21-5-35 7-6 7-15 7-11 1 2-9c20-17 49-53 60-74q3-12 9 5a146 146 0 0 0 96 78zm636-8c-1-7 5-75 7-87v-6 8zm-195-4q30-14 45-44 3-8 3-5c-5 18-44 55-57 54zm119 3c-5-5-2-12 4-13q9 0 8 8-3 12-12 5m9-1q3-6-2-9c-5-3-10 4-6 9q4 3 8 0m-137-16-2-2v-23c1-46 9-105 15-106 31-8 51 54 31 95-11 21-38 44-44 36m21-11c16-17 20-22 25-41 4-18 4-43-2-51-16-27-32-30-35-8l-4 17-5 60-1 19 3 4 4 4h10zm811 5c-6-16-22-39-39-57-10-10-10-9 1-11q40-7 58-42l4-6v1l-4 7a77 77 0 0 1-60 41c-7 1-7 1-1 8 17 15 48 61 44 65zm-1938-8-6-2q-10-4 4-11 5-2 6-6 2-3 1 0v2l1-2 2-4q0-3-1 0-3 2 0-5 2-8 3-6l1 1c1-1 10 8 10 10q1 3 13 3c11-1 11 0 5 11q-4 10-7 10c-5 1-31 1-32-1m1653 1c5-2 20-4 28-3l9 1-13-14q-21-21-29-38-5-11-6-6 0 1 0 0 0-8 7 6 10 19 30 39c15 15 15 14 3 13q-13-1-28 2l-3 1zm-1696-6q-1-14 16-26l7-5 4-9q10-18 25-19 6 0-5-6a84 84 0 0 1-38-57q0-5 1 2 13 45 45 58 6 4-1 4-17 1-26 19c-3 7-5 9-13 15q-12 7-15 25zm143-15 17-39c12-24 25-53 24-54s-24 1-25 1l-6 11a73 73 0 0 1-72 40h-12l6 5 10 6h5-5q-5 1-8-3l-7-6q-9-5 4-3 54 6 80-43l5-8c4-1 27-2 27 0a732 732 0 0 1-43 93m163-11 4-11 9-19c13-32 14-33 20-23q12 20 31 29l5 3c-7 1-30-19-37-32l-5-6-13 29zm-176-9q-15-6 1-20 26-18 8 16-3 9-9 4m1079-48q-11-44-50-44c-10 0-10 0-11 6l-1 4v-4c1-14 31-9 47 7 8 9 19 33 17 39zm643-20q-17-12-18-17l2 3c3 4 27 21 28 20l-9-26c-3-6-13-7-19-2l-3 2 3-3q16-14 25 16c6 18 7 17-9 7m163 1-9-1zc44 4 75-12 82-41l1-4c1 28-42 52-82 46m-99-4-6-4q0-3 2-3l1-2q1-4 3-1l1 2 3-2 2-2 2 1c2 3 13-3 12-7q0-3 2 0l1 2 4-3 5-2q5-1 4-7c-2-4 6-3 9 1l1 1c7-1 5 8-4 17q-8 9-9 4 0-2-1 1c-2 4-5 6-17 6l-10 1zm-534-32q0-7 5-7l4-1v9l1 4-2-1h-7l-2 2zm-38-32-4-6c-6-13-20-33-32-47a203 203 0 0 0-88-53c12-1 51 20 73 38 16 12 35 37 49 63zl1-4 1-5v4q-1 8-3 5m715-2q5-3 3-3l-1-4 1-4-3-5q-6-5-2-12v-1q-4 0-3-3l1-2q1 1 1-4c-1-3 6-8 13-10l24-7h6v-3q-1-15-28 4c-21 13-31 17-21 6l5-4-4-4q-3-4-5-3h-1q0-3-3-4l-4-2-7-26c-3-3 0-7 19-21l19-15c8-8 10-9 17-9q7 1 3-6-4-17-27 7-10 11-4 3 33-38 35 4 2 38-36 76l-8 9q5-1 22-12 33-25 29 8c-2 20-23 44-44 49q-2 0 3-2m-328-28a156 156 0 0 1 45-37 161 161 0 0 0-45 37m-1727-2c-2-59 69-97 117-63l4 4 8-1 54-3h6-5c-7 2-44 4-55 5h-8l-4-3c-46-35-107-5-116 58zm629-2a166 166 0 0 0-260-37c-8 8-8 8-12 0a69 69 0 0 0-47-39l-4-1c3-1 17 4 23 7 9 5 26 24 30 35q2 5 8-2c75-75 211-58 259 31 6 10 5 10 12-1a182 182 0 0 1 186-77c-70-15-150 19-187 80q-6 12-8 4m879-6c0-91-133-108-153-19l-2 5c-2-2 10-29 17-38 34-41 111-32 132 16 4 11 9 42 6 42zm197-12a207 207 0 0 1 52-42c62-33 130-30 190 10l2 1 17-12c31-23 36-27 50-42 33-34 37-37 44-41l7-3h22l5 3c13 6 26 28 25 41l-1-4c-8-46-45-53-81-16a362 362 0 0 1-76 67c-13 10-11 10-19 4-30-20-60-29-98-29h-22l-12 3c-40 9-69 25-95 53q-11 12-10 7m-3-8q-13-38-61-44-6-1-2-1c15-1 38 9 49 21 8 8 18 28 16 30zm-144 2c-1-18 39-47 68-48h9-7q-48 6-67 42zm-1348-41 56-9 30-4h8l-11 1-29 4zm653-7-15-6-10-3c3-1 19 5 25 8s5 3 11-5c5-7 5-8 2-18-9-34 2-69 24-79 21-10 41-1 68 32q19 22 54 46l16 12 5 3 8-4c9-4 22-8 28-7q5 0-2 1-15 2-27 8l-7 3-3-2-17-11c-26-19-39-30-67-61-45-49-97-9-79 59 3 10 3 11-1 17l-5 7q-2 5-8 0m326-6-31-1h-28l-5-3-12-6-6-2c2-1 12 3 18 7l5 3h28l38 3zm-826 629-6-2h3c6 2 22 1 29-1q11-3 1 2c-5 2-20 3-27 1m167 0-7-5-5-4 7 3c12 6 32 7 43 1l4-1c4 4-35 10-42 6m250 1q-9-2-11-5l6 1q18 5 34 0l-2 2c-4 2-18 3-27 2m-152-1c-12-1 6-4 23-3h5l-3 1c-3 2-14 3-25 2m70-19q-3-7-6-8l-2-2-5 3-5 3 1-2c6-18 2-41-8-52q-6-8 2-1c4 3 14 18 15 22q0 3 2 2l2-2 1-5 4-8 2-4 1 5v51l-1 4zm-116 1 2-6 1-18q1-41 5-23c2 6 3 34 1 37l-2 4c-3 7-8 11-7 6m-111-2-1-25v-21h7c9 1 9 1 3 8l-6 7-1 6-1 16c0 10-1 17-1 9m131 1-3-7q-2-5-2-10v-22l1-5 2-5 2-5 3-4 1 5v49q-1 10-4 4m-161 0-1-14v-13l-3-5-5-10-2-3 2-1c13-2 12-4 11 23-1 25-1 26-2 23m288-6 1-42c1-2 5 3 5 6 0 5 5 10 6 6q3-4 8-6v13c-1 10 0 14 1 20q4 13-2 4-4-5-9-5l-4 6q-5 13-6-2m931-2q-5-9-13-14-5-1 2-4c6-3 7-4 11-11l3-6 3 6c3 6 5 8 14 13q3 0-3 4-8 3-12 13-2 8-5-1m-1299-1-9-6-5 1-7 1-1-8q-2-13 6-6c5 4 17 9 26 10 13 3 15 12 3 13l-5 1zm17 3q8-6-9-10l-13-4q-11-4-9 0-1 3 5 5l8 4q12 10 18 5m164 0c-7-3-7-5-7-27q1-31 3-17l2 8 1 11c0 19 10 18 13 0q4-29 5 1 2 34-17 24m242-1c-8-3-12-18-9-29 5-18 29-17 32 1 5 21-7 36-23 28m12-6c8-5 9-16 3-22q-9-9-17 1c-9 12 3 29 14 21m-163 6-1-20v-20h7c25-1 26 38 2 40zm21-32q-1-6-15-7-8-1-6 5l1 2 3-1q6-3 12 1 5 3 5 0m-148 20-1-9-3-11q-5-16 1-19c7-6 7-1 6 32q-1 22-3 7m399 0-8-7-3-1 6-6 8-8 2-3 1 3 8 8 5 6-5 5q-6 4-7 7l-2 2zm-646 0-7-6-4-3 5-5 7-9q3-7 15 13c1 2-5 8-7 7h-1c3 5-4 7-8 3m138-12-18-6c-13-3-15-5-15-8 0-7 11-7 20-1q8 6 16 3l3-1v12q4 7-6 1m-3-7q0-2-3-2l-6-4c-10-7-20-8-20-1 0 3 1 4 14 7s15 3 15 0m51-31q-16-1-9-4c5-3 45-1 42 3zm-402-107c-3-4-3-4 2-10 7-7 15-5 15 4s-11 13-17 6m12-1c4-4 2-10-3-10-3 0-8 5-8 7 0 5 8 7 11 3m-40-13c-23-7-27-43-5-50 20-6 37 6 37 26-1 15-17 28-32 24m15-7c15-7 18-32 4-34l-4-2-1-2-2 3q-4 4-1 6v3l-1 4q2 2-3 3-3 1-3 4l-2 2-1-2q0-2-2-2c-3 1-10-5-10-9q0-3-2-1c-2 1-2 14 1 19 4 9 17 13 27 8m-13-25q9-9-4-11-7 1-7 7 2 11 11 4m2000-127q-2-9-6-11l-7-5q-7-1 1-4 8-4 11-13 3-10 7 2 2 7 8 10l6 3-5 3q-8 4-11 14-2 6-4 1m-713-238-8-3q-7-4-11-13 0-4-4-6c-5-5-6-24-2-32l11-17c7-5 22-10 24-7h3q3-3 13 3l9 4 1 1 2 1q6-1 11 11c16 31-17 70-49 58m26-10q12-3 17-20c10-28-18-53-45-40-39 20-13 76 28 60m-8-9-8-1q-15 2-18-4-4-7-1-7l-3-7q-2-1 1-3l1-8q0-25 19-18 8 3 6 14v5h3l4 1h5q8 0 9 5l2 2c3 1 5 6 3 6l-1 2v2l-2-2v1q-1 6-4 5-2-1-3 2l-4 3c-3 2-10 3-9 2m-8-29q8-9 0-16c-11-7-24 4-18 15 3 6 12 6 18 1m290-2q-19-8-12-24c4-9 4-10 8-13 16-11 37 7 29 27q-7 19-25 10m16-4c11-6 11-24 0-30q-9-6-9 2 0 6-8 6h-5l-2 3c-6 13 10 26 24 19" style="fill:#b2ecf5" transform="matrix(1.2 0 0 1.2 -304 -2100)"/><path d="M1745 2716c-30-5-63-17-84-31q-4-4-7-3l-3 1 2-2 2-2h-3c-4 1-12 6-11 8h-2c1 3-32 14-51 18-15 2-46 2-50 0l-2-2 5-4c8-8 17-18 17-21l-8-7q-34-28-9-20c29 10 98 12 84 2-21-15-43-75-35-95q2-4 2 3c0 13 3 24 6 22q4-4 4 7 2 21 33 50c14 13 19 12 47-6 58-39 61-108 3-79-11 5-10 5-10 0q-1-8-7-3-5 4 0-6c8-14 30-25 44-21q20 5 26 20c2 6 5 17 3 14q-2-4-4 5-3 8 0 9 2 1 2 5v3l2-4 1-9v3c0 10-2 19-4 19l-1 1-2 3c-2 2-4 10-3 9q3-1 0 3l-2 1v2l-1 1v1l-1 1c1 1-5 11-6 10q-2-1-2 3 1 0 0 0l-3 2-16 17-7 7-5 7q1 1 0 0-4 0-6 4h1l-1 1c-3 4-1 5 16 10 44 14 100 10 140-11l15-6q2 1 0 0c-1-1 17-13 18-12q2 1 0 0a83 83 0 0 1 21-17l3-5 2-1q-2 3 0 3l3-2 4-3 5-5 4-3 2-3q2-4 3-1 2 3 5 0l4-3h7l2-2q1-3 4 0 4 5-4 6-3 0-2 1l-1 4-2 2 2 5 3 7q2 3-6 6l-4 3q-1 5-7 11l-7 7a361 361 0 0 1-65 47c-27 13-72 20-103 15m-43-178v-8l-1-2-3-2-2 2q-1 3-3 3l-5 1-3 2 7 1 7 2q1 3 3 1m-199 80-1-4c0-7-10-21-17-24q-9-2 0-5t14-13q3-5 3-2 2 7 6 5l3 2q3 5 8 7 9 4 1 7-10 6-14 23-2 10-3 4m535-41-15-2q-15 0-5-2c10-2 25 1 26 4q3 3-6 0m-385-5q-7-7-15-12l-2-1q4 0 13 6 13 8 18 0c4-5 3 0-2 5-6 9-6 9-12 2m-1127 2-7-2c-59-11-61-92-6-217a1729 1729 0 0 1 54-118l1-3-5 1-49 6c-20 1-18 0-21 9-14 59-95 57-112-2-7-25-9-76-4-97 10-43 58-60 90-32l5 4 18-1c35-1 107-10 142-18 21-5 26-4 42 3 22 11 32 29 32 62v17l7-14c29-60 98-89 171-71 100 23 131 146 63 245-12 18-59 65-74 73-6 4-1 6 23 9 23 3 31 2 41-6 41-30 80 45 49 95q-35 52-123 30c-45-12-71-12-103 0-44 15-74-4-76-49-2-40 19-71 91-134 59-52 80-80 83-112 4-40-32-44-37-5q-6 63-62 61-62-1-62-73v-19l-2 4-32 68c-17 38-22 48-33 78-19 51-28 92-30 134q-6 84-74 74m24-2c32-5 45-25 48-66 3-69 21-127 65-220 38-81 39-83 42-106 5-53-25-85-72-75-38 9-103 17-150 19l-11 1-6-5a54 54 0 0 0-83 18c-10 21-10 84 1 114 18 54 96 53 108-2 3-10 2-9 6-9l59-6c17-3 18-8-15 60l-23 51c-54 120-59 200-12 221q19 9 43 5m-22-18c-56-8-56-72 1-205l9-21 50-108c4-9 4-9-11-6a523 523 0 0 1-93 10h-2v8c0 46-62 59-84 18-12-24-15-90-4-111 12-25 45-29 68-9l6 5a507 507 0 0 0 91-7c23-3 45-6 74-13l16-4 6 1c19 3 33 18 37 37 5 25-1 47-30 104a1048 1048 0 0 0-58 143q-14 42-17 91c-4 37-4 41-10 49-9 14-29 21-49 18m38-10c5-3 13-13 11-14q-2-2-11 7-12 15 0 7m-15-1q19-8 22-32c2-14 2-42 0-42l-1 2q-1 6-5 4-2-1-2-4-1-8-6 1-3 9-7 0-2-5-5-6-5-2 1-7l4-3v-6q-1-10-3-6l-1 3-1 1-1 1q1 2-9 3-13 3-8-3l3-3-3-2q-3-3-7 1l-8 2q-4-1-3 1 0 3-2 2-5-3-10 25c-2 9-2 33 0 33l2 5q-1 5 2 8l2 6c0 2 5 9 10 13 6 4 27 6 36 3m-30-18q-3-2-2-8v-5l-5-5q-4-4-5-4-6 2-7-3 1-4 4-5 11 0 14-18 6-18 8-5c0 9 5 19 12 20q10 4 9 7l1 4v2l-1 2-1-2q-2-4-9-1l-3 2-2 5-1 5c2 1 1 6-1 5q-3-2-3 1-2 9-8 3m6-7q3-13 13-18 8-2-1-6-10-3-12-14-3-11-4-2-3 13-11 16-10 4-1 7 7 3 12 15 3 10 4 2m-28 9q-4-8-5-27-1-12-3-11c-4-1-3 27 2 37 4 8 9 10 6 1m84-39c2-5 6-33 6-41 0-7 2-18 4-21l6-19 12-41c7-20 34-82 53-121 33-65 37-99 13-120-14-13-21-13-54-6a437 437 0 0 1-88 13c-24 3-48 4-59 4l-10 1-6-6c-27-22-60-13-69 20-6 21-1 77 7 95 21 43 79 33 82-14l1-10h2l20-2c36-2 54-4 75-8 19-4 20-7-10 57l-63 146c-7 20-11 38-8 41 2 1 3-1 7-15l13-42 3-8 1-4 4-7 23-49c6-14 13-30 17-35a696 696 0 0 0 36-79q9-19 4-18l-30 5a680 680 0 0 1-101 9l-2 1-1 11q0 25-17 35l-5 3h-10c-29 0-37-15-40-71l-2-28 2-7 3-9c2-3 7-1 6 3q-4 22 5 25 9 2 11-11 2-9 8-13c13-7 1-20-13-16q-6 2-2-3c7-7 27-5 35 4l10 7 6 3 29-2 62-5 48-9q44-8 54-5c13 6 24 22 19 30q-2 6-5 2-4-2-2 3 1 6-3 9-3 2 2 2c12-1 10 20-4 45l-24 48a702 702 0 0 0-60 183c-7 18-7 57-1 40m-24-22 2-1 2-2-4-5-4-4-2 2q-1 4-3 4-3 4-1 5l4 3 2 4 2-3zm5-19 1-3q0-4-4-4l-2-1q-1-2-4 2-4 3 0 5l5 1q4 3 4 0m14-4q3 0 4-10l1-7q1-2-2-3-2 0-1-3v-1l-4 1q-3-1-4 3l-2 3-3 3-1 2 1 1 3 6q0 7 5 6zm81-252 1-9v-7l5-5q11-8-3-11l-6-3-3-6c-5-10-6-10-15 2q-1 3-9 4c-10 0-11 1-3 12l3 5-2 7q-5 14 10 7l6-2 5 4q9 5 11 2m276 359c46-10 71-53 58-98-9-30-35-44-54-29-12 9-20 10-45 6-25-3-29-6-22-10 20-13 66-60 80-82 85-137-17-279-164-230-103 34-126 200-28 200q53 0 59-59 3-31 23-28 19 2 17 31c-2 32-20 57-76 107-87 77-108 112-96 154q15 55 78 32c29-11 43-10 109 4q33 8 61 2m-38-16-34-7c-54-12-75-12-109 2l-11 4h-9q-22 0-31-19c-18-35 2-73 68-131 82-73 101-99 99-143-1-55-56-52-63 3q-7 56-61 45c-56-12-45-116 17-157 99-65 220 4 207 116-8 58-31 94-101 152l-36 31 12 2 33 4c43 9 53 8 66-4 24-20 49 22 36 60-10 30-41 46-83 42m-150-15q14-5 8-8l1-1h2q3 3 6 1c5-5 73-3 91 3q4 1 5-1 1-3 1 0c-1 2 1 3 16 4l28 4c17 3 39-1 48-10 4-5-1-9-7-6-18 11-34 11-34 1q0-6 10-9l12-6q10-7 14-6 5 0 2-5-4-10 6-11c6 0 9 8 4 12q-3 4 1 11l3 3 2-2c11-11 8-41-5-51-5-3-6-3-14 2q-13 9-30 9c-11 1-12 1-32-3-9-2-30-2-33 0h-3l-4-1-5-3-2-2h-10l-13 1c-12 3-18-4-9-10 2-1-2-4-4-3q-3 1-3-3-2-6-4-2 0 2-3 2-4 0-4 2c-1 5-7 2-7-2 0-3-5-7-6-6v3q1 1 0 0c-2-1-8 3-7 4q1 0 0 0l-3 1c-3 4-15 3-19-2l-2-3-6 7-15 18q-2 4-2 6v2c-5-3-14 22-13 34q5 39 39 26m35-30-3-1-7-1c-5-2-4-1-3-14q2-5-1-5v-2h2l4 2q6 1 8 7l1 3 4 3 3 3q3 2 0 5c-1 2-7 2-8 0m-2-42-1-2-1-1h-2l-2-1q-2 0-1-2 1-3-4-3h-1l-2-1q-1 1 0 0 1-3 7 1 4 2 2 2h-1c1 2 6-1 7-3l4-1q5 2 1 3v1h2c2-2 7-3 7-1q0 1 2 3 3 3 1 4l-1-2q0-3-6 0-4 2-1 3t0 2q-7 2-10-2m-7 72 8-1c8 0 14-4 8-5s-27 4-27 6q0 5 11 0m195-9c7-8 13-22 8-22q-2 0-5 6l-8 12q-9 15 5 4m-33-1q18-9 14-18-3-5-12 1c-6 4-8 6-15 8-9 2-11 8-4 10q8 3 17-1m44-54c-2-13-11-25-21-26-6 0-7 1-11 4q-9 10 5 4l5-2 3 2 8 7 8 10 1 4q3 7 2-3m-80-11-1-1-21-5q-20-3-33-4l-13-1v-2q-1-3 9-10c16-14 26-25 21-24a341 341 0 0 0-47 41l-2 2h15q15 0 29 2c21 3 25 3 34 3zm-156-24a907 907 0 0 1 63-58l33-29c3-2 26-33 32-46 28-55-2-113-48-93-5 3-21 18-23 21-1 5-4 18-4 29q-2 34-31 34c-14 1-29-4-31-9q0-3-2-3c-12 0-16-57-4-70l6-14c6-14 10-19 21-30 21-19 32-24 56-28l11-2c26-5 69 1 79 10l6 3 7 4q3 3 7 5c10 6 20 19 15 22l-1 1 2 3q0 3 1-1 2-5 4 2l4 5 2 3 3 9q10 21 7 58c-3 28-6 36-15 55-13 27-21 37-54 69q-34 33-21 24l6-3c32-18 76-74 87-111 24-81-8-146-81-167l-12-3h-23c-71 0-120 39-132 104q-10 61 34 72c32 9 54-7 58-44q5-43 36-42c40 0 43 68 4 113a618 618 0 0 1-93 93l-6 7q-9 8-5 8zm7-199c5-3 4-13-1-15q-7-3-11 2c-7 9 4 20 12 13m183-8 4-6q7-4 0-6l-6-5q-3-6-5 0l-5 6q-6 4 0 6 5 2 6 6 2 7 6-1m-18-6q-2-2 4-7 6-6 4-7c-3 0-9 2-9 4l-4 2-2 1q0 5 2 4h2l-2 2q-2 1 3 4h2zm-153-11q5-1 8-8c7-15 32-33 51-39 10-4 7-12-4-12-27 0-60 24-68 50-2 6 6 12 13 9m132-7 5-4 7 1q12 3 6-9l-2-7 2-5q3-4 2-7v-2h-7l-8 1-4-4q-7-9-10 2-3 10-7 10-12 4-1 11 7 3 7 9 0 13 10 4m-16-27q3 0 5-7 1-7 4-8l3-2 2 2 5 4 3 4 7-1q11-2 11 3v2l1-2q2-3-1-4l-4-3q-1-2-6-2l-6-1-3-1q-1 1-1-1 1-5-9-3h-10q-5-1-5 5 3 3 0 5-2 0 1 3 2 4-1 5-5 4 4 2m196 400c-29-6-48-30-46-60 2-29 15-43 50-54 27-9 55-28 64-44l2-4-10 1c-104 9-173-87-142-196a160 160 0 0 1 240-88l8 5 1-3 1-9q1-16 13-23l4-2-2-5c-28-55 5-104 43-63 28 30 40 41 66 60q25 19 31 27 1 2-7-5-8-8-20-17c-28-21-43-34-59-52-26-28-34-33-47-26-17 8-20 44-6 74l3 7-5 3q-14 6-13 27l-1 11-8-6c-51-39-138-35-191 9q-56 46-56 128v22l3 13c15 72 77 118 147 107 27-3-22 38-58 50-26 8-37 16-45 32l-4 8v12c-4 98 141 70 214-41 44-67 64-159 50-238-2-14-2-15 3-13l2 1h-5l2 16c14 83-13 189-64 254-41 51-116 90-158 82m1240-3q-11-6-18-15l5 4c20 20 41 16 54-12q16-33-25-41-12-2-1-1c21 3 35 16 32 30-6 27-28 44-47 35m-934 0-8-1h-5l-6-5-7-6q0-2-5-6c-7-7-19-24-23-31-6-14-1-33 7-27 8 5 19 0 25-11l2-3h2c9 3 12 5 18 13 7 10 7 10 18-2 11-10 13-12 22-14l6-1 8 3c34 11 24 50-19 78l-11 7q1 2-4 2l-9 4q-5 3-11 0m16-21-3-6q-4-4 1-6 2 0 4-5 5-6 6 0l3 5q7 8 1 9-6 3-2 5 6-1 8-6 1-2 7-3 5-2 11-8l4-5 2-2 1-2c2 0 5-7 5-9 0-7-14 4-16 12q-4 11-6 1-1-12-10-16-9-5 0-6 10-5 12-15c0-4-11 0-18 7l-7 3-6 5c-4 4-12 5-13 2q-2-3-4 1-2 5-6 0c-3-3-12-4-13-1q0 3 4 4 5 1 2 6-7 4-6-2 2-6-7-2l-3 2-1-2q-7-4-6 4l4 2q6 1 3 6-6 10 7 9h4v3c0 5 14 11 14 6 0-4 6-5 6-1l1 4 1 3 2-2h4c3 4 10 4 10 0m9-5 2-3-3-4-3-3-3 3-4 3 2 3 3 5 1 2 1-2zm26-27 6-4q5 0-1-4-6-6-6-11l-2-4-1-2-3 6q-5 8-11 11l4 4q5 4 6 10l2 5 2-4zm890 46c-16-6-31-27-26-38 2-3 2-3 11 1q12 7 24 8l18-2c7-2-8 29-16 31zm9-1c4 0 17-19 17-25 0-1-6 0-8 2h-3l-8-1-12-4q-15-7-20-4c-5 7 21 35 30 32zm-685-8c-15-9-18-10-25-11q-11-2 0-2c9-1 24 7 28 13l1 2zm-573-1q-19-4-26-20l-4-8v-24l3-6q6-15 30-22c43-13 70-36 91-76q7-14 3-13c-58 25-129 1-156-54a149 149 0 0 1 161-214c101 18 141 138 92 278-32 94-130 174-194 159m25-11a170 170 0 0 0 42-15c21-8 55-34 54-40q0-2 3-2a125 125 0 0 0 35-48q0-3-4-1l-5 1-4 2-5 1q-2-1-4 1l-4 1-7 1-11 1h-8v-3q0-4-5-3l-4 1 2 1q3 3-1 2h-3l-1-1q-3 0 0 0 3-1 0-3l-6-1-6-1-6 7q-6 7-6 9l-4 3-4 2-2 2-13 6q-14 9-38 17-11 4-11 7l-3 3q-3 0-3 2l-6 6c-6 6-7 9-6 18 1 19 19 29 44 24m43-5q15-7 5-6c-6 1-23 8-23 10-1 3 8 1 18-4m48-32 9-7c5-4 18-17 18-19q0-1 6-7a233 233 0 0 0 34-56 224 224 0 0 0 20-60c2-6 5-19 6-29l3-19v-29c0-80-23-123-82-153-45-23-123-7-160 32-46 47-55 114-25 174 23 48 97 75 146 52q18-10 2 17c-12 23-22 36-38 49q-12 9-4 8c9-2 40-36 51-56l11-31q4-11-9 0-22 14-57 14h-15l-12-3c-14-4-30-11-37-16q-52-41-45-119c1-12 1-14 9-35l5-14c7-18 30-43 55-57a158 158 0 0 1 128-2 125 125 0 0 1 38 33c8 9 19 30 21 43l4 13a329 329 0 0 1-34 213l-15 24-2 4q0 3-5 7-6 3-14 12l-13 14q-9 11 1 3m-136-6c3-7 4-8 11-13q12-7 5-6c-11 0-25 16-20 22q1 4 4-3m172-115q4-3 9-5 10 0 2-7-3-3-3-8-1-10-8-3-2 4-8 4-8 2-5 5 6 8 6 12 0 10 7 2m13-46 3-7q1-9 9-11 15-4 3-11-8-6-8-13 0-18-15-4l-3 3-8-2q-16-4-9 10l3 7-4 6q-13 16 6 13c9 0 8-1 14 7q5 8 9 2m-75-16c16-6 32-27 35-42 8-53-13-88-53-88-25-1-35 5-50 28-11 15-12 20-11 43 1 46 41 75 79 59m-34-6c-49-13-48-101 1-114 46-12 77 41 53 89a46 46 0 0 1-54 25m29-3c40-15 43-88 4-106-29-15-60 4-66 40-8 46 24 80 62 66m-23-7q-15-4-23-19l-4-8v-11c-2-41 32-64 57-40 29 30 7 85-30 78m21-4c34-17 24-81-13-81-39 0-49 68-12 82 6 2 19 1 25-1m-112-65q6-6 1-12c-7-5-18 2-13 10q5 8 12 2m8-21 6-8q8-17 24-28l7-7q8-7 20-12c11-3 14-13 5-16-6-3-25 4-40 15-13 9-18 15-27 34l-7 13q-4 1 1 6 6 5 11 3m96-65q2-2 3-5l2-2q2-1-3-6c-9-6-19-1-17 9 2 7 11 9 15 4m310 377c11-22 2-49-18-56l-5-2c5-2 20 11 25 20 6 13 4 39-5 44zm816-6q-7-4-1-13c9-15 25-5 19 11-3 7-12 8-18 2m8-7 3-3c4-1 3-6-1-7-5-2-15 8-11 12q5 4 9-2m-45 0q-32-2-18-32c6-13 8-15 11-15l4-2h3q2 2-2 3l-2-1 1 5q4 16 25 27l9 5q0 15-31 10m22-1c4-1 7-9 4-10l-10-5-10-4-2-2q-3-3-8 3-4 4-3 1l-3 2-6 5c-13 4 25 14 38 10m-1863-96q-5-3-6-16c-1-7-1-7-9-13q-19-14 2-26c9-4 10-5 12-12q8-28 26-8l6 7h10q28 0 15 24c-5 7-5 8-2 14q10 27-17 23c-10-2-11-2-17 4q-12 12-20 3m12 1 8-6 6-5 4 1 12 1 7 1 4-3 3-4-1-5q0-6-3-11l-3-6 5-8 5-8-1-5q0-4-3-7l-3-3h-20l-7-7q-19-19-25 9c-2 7-2 7-11 11q-22 11-3 25c9 5 8 4 9 14q3 22 17 16m-6-9-3-9c-1-10-1-11-10-17q-12-7-4-11l2-2-2 2q-8 4 9 13 7 4 8 16 2 9 8 3c8-8 11-8 27-6q8 2 2-9c-3-7-3-10 2-19 5-10 5-11-4-13h-5 6q6 0 7 2l2 2-5 8c-5 11-5 11-1 21q10 17-11 10c-8-2-10-2-18 5q-9 8-10 4m2062-68q-3-9-9-12-5-2 1-5 6-2 9-11 1-7 6 3 2 5 7 7 10 4 1 6-7 3-9 12-3 9-6 0m-86-96q-30-3-19-9c31-18 22-67-12-64-15 1-26 18-18 28l2 3 1-6c2-26 37-21 37 5 0 39-54 42-64 3q-9-37 39-73 31-22 6-3-15 12-5 10l2 1 2 1q5 0 5 7v4l4 2 4 2v12c0 2 3 7 5 7q3 1 10 12l5 5-1 3-1 4 3 2 2 4 2 5 1 4 1 10 1 8q0 2 2 3 5 2 2 6h11l-4 1-9 2zm-14-53c4-3-11-11-19-9q-4 2-1 3l4 1 3 2 3 1 1 1q-2-3 1-1l2 3q2 3 6-1m-1052 20c-27-7-34-27-11-30q23-2 7-6-41-9-51-44-10-37 23-18c10 7 23 15 26 15q0-2-11-12c-30-32-42-68-29-89 6-10 13-7 33 15 24 26 35 36 62 54q62 44 39 87c-17 35-74 11-58-24 9-18 35-13 36 7v5l2-2c8-11-5-30-22-29-32 0-37 50-6 65 11 5-25 10-40 6m31-2q14 0 6-4l-10-9q-7-8-8-6l-3 2-4 2q-4 3-7 3t-3 2l-2 3-1 1-5 1q-9 0 1 3 11 6 36 2m42-12c28-13 26-55-5-83-12-10-26-21-24-16v2q-2 2 1 3 3 4 3 12l2 4 3 2-2 3-4 5-2 2 2 2 2 3h-2l-2-2-1 1q-2 1 5 2c17 3 28 21 19 32q-4 6-4-2c2-19-25-24-32-7-10 24 17 47 41 37m-55-20-1-8v-5l-3 2-2 8v5l3 2q5 4 3-4m-13-111c0-3-13-17-31-36q-13-12-19-1-3 5 5 6c6 1 12 5 27 20q19 18 18 11m87 130c11-15 14-37 8-56q-5-13 0-2c8 20 4 50-9 60zm904-46c0-3 17-18 28-27l8-4a255 255 0 0 0-36 31m-1310-38-4-9c-5-15-10-20-22-24q-15-5 2-13 15-7 21-27 5-15 11 2c4 14 8 19 20 25l8 4-1 2q1 4-8 7-14 6-18 22-4 15-9 11m5-27 7-8q7-6 2-8-4-3-9-10-3-7-7 2-3 4-8 7c-4 4-4 4 2 10l7 9q2 5 6-2m1069 18-1-4-4-13-4-11-5-5q-7-7-21-12-9-3 1-8c23-9 27-14 33-40q4-16 9 5c5 21 11 28 29 34q16 6 1 10-25 7-30 35-4 16-8 9m-1015-49q-3-7-8-10-11-5-2-8 8-3 11-12t7 1c2 7 4 8 10 11q11 4-1 8c-6 4-8 6-11 14q-1 6-6-4" style="fill:#f6b0cb" transform="matrix(1.2 0 0 1.2 -304 -2100)"/><path d="M1741 2754a296 296 0 0 1-84-26l-6-2-12 4c-90 31-161 11-139-40 4-10 4-9-1-19l-8-16-6-9c-3-3-10-11-13-17q-4-12-12 2-12 19-32 22l-16 5q-18 9-41-5l-10-6-6 2c-19 4-31 2-45-9l-14-10q-25-12-17-52l3-17 1-14 1-8-5-11-8-24-5-13h-2q-2-1-18 17c-76 89-197 111-237 43-4-6-5-5-22 8-35 25-73 30-129 17-39-9-37-9-52-9-16 0-23 2-39 8-79 31-140-50-100-132 12-24 23-38 55-70 34-34 34-34 14-39q-17-3-33-15c-15-10-18-10-22 1-36 81-51 133-53 183q-4 97-85 100c-62 3-104-43-99-108l8-61-2-2h-20l-7 3-7 3h-25l-6-3q-14-7-21-25c-2-7-4-9-10-16-18-19-16-44 5-62q26-22 15-37c-36-41-40-144-9-186 24-32 73-41 108-20 8 6 10 6 31 4 43-4 90-10 114-15 44-11 69-4 95 22 10 10 9 10 20 2 78-56 188-43 247 27 11 13 8 13 24-4 35-37 73-55 123-61q33-3 74 6c13 3 15 3 18 1l2-2-1-14c-8-75 52-111 99-59q25 29 39 39l40 30 3 1 11-3q39-12 72 4l10 5 14-1c60-3 118 19 159 62l17 16 2 3 4-2q7-1 9-13c15-59 77-86 134-59 32 15 51 63 42 103-3 10-9 47-9 51v4h4c9 0 10-5 20-53l11-42q13-43 63-59l10-3h15q41 0 68 29c10 11 11 11 26 1a195 195 0 0 1 213-15c11 5 9 5 21-2 17-12 43-34 59-52 23-25 29-30 44-34 45-13 76 29 66 89l-2 11 4 9c13 28 6 67-17 91-6 6-7 8-10 17q-12 52-79 53l-18 1-2 4c-4 9-10 15-26 27-22 16-21 14-8 34l12 21c8 15 7 15 22 10 59-21 110 2 99 43v11q5 24-12 38c-9 7-14 7-38 5-13-1-31 6-32 12q0 3 5 14l5 11v13c0 47-43 81-84 68l-8-2-4 1q-6 3-20 22c-55 70-136 91-199 52q-11-6-33-31c-19-20-31-17-70 23-83 84-149 113-230 101m54-11c58-7 100-31 160-91 30-30 36-35 51-42 17-8 27-6 38 7 68 77 157 68 225-23q12-15 22-22l4-3 9 5q44 21 69-33 15-34-13-54-6-3-6-5c0-3 31-20 43-23 6-2 7-2 29 0 19 2 30-12 24-31l-2-6 2-5c14-37-44-54-98-29-12 5-11 6-15-4-7-20-27-49-44-64-6-7-6-7 1-8q40-5 60-41c4-9 3-8 15-7 43 6 78-15 82-49l1-7 8-8c25-27 31-61 14-87l-3-5 2-8c10-37 1-70-22-82l-5-3h-22l-7 3c-7 4-11 7-44 41-14 15-19 19-50 42l-17 12-2-1a179 179 0 0 0-241 32l-3-6c-20-61-113-65-142-6a451 451 0 0 0-28 117l-21 1h-19v-3l10-52c16-73-11-116-71-117q-51 0-72 43c-6 12-6 14-14 52-5 26-5 24-8 18a192 192 0 0 0-181-109h-27l-5-3a78 78 0 0 0-74-3l-8 4-5-3-16-12q-35-24-54-46c-27-33-47-42-68-32-22 10-33 45-24 79 3 10 3 11-2 18-5 8-5 8-16 3-75-33-174-3-220 68-7 11-6 11-12 1-48-89-184-106-259-31q-6 7-8 2c-4-12-21-31-33-36-19-9-31-9-67-2-53 10-101 16-130 16h-8l-4-4c-33-23-84-13-103 19-11 19-15 34-15 61 0 67 14 103 44 120q12 6 5 6-15 1-25 19l-4 9-7 5c-20 13-22 32-5 48l7 7 2 7c6 23 24 31 45 21l10-4h6c24 3 40-16 34-42l-1-6 2-6c9-23-2-41-26-44l-9-1-6-5-6-5h12q50 2 72-40l6-11c1 0 24-2 25-1s-12 30-24 55l-22 48c-32 73-43 145-29 183 21 57 108 66 142 14 7-11 10-25 12-52l2-25a527 527 0 0 1 55-171l13-29 5 6c20 34 65 48 104 32 5-2-9 13-29 30-85 73-113 121-96 173 13 43 52 58 99 40 22-9 43-9 80 0 81 19 126 7 154-40q8-12 8-4c0 38 46 69 92 61 68-12 141-69 174-136 30-63 42-118 40-185v-24l12-1c17 0 16-4 12 33-5 47-7 72-7 112-1 44 0 40-7 42-43 13-59 68-34 111l4 6-2 6-2 19-3 24q-7 27 17 37l11 8c11 11 28 12 43 0 4-3 4-3 8 3q18 24 41 12 8-4 14-5 29-2 27-32c0-8 1-10 3-18l4-14q1-5 4-4h3l-2 2c-9 9-4 26 9 32 8 4 9 5 13 15q4 15 12 18 4 1 4 6 2 16 16 30l4 5-3 3q-18 24-3 39c17 16 83 12 128-8l9-4 12 6a225 225 0 0 0 131 26m79-56 5-4c18-11 35-26 68-60l-2 4c-24 26-71 65-71 60m14 0 6-5c13-9 27-22 52-47 28-28 50-46 58-45l-8 5c-16 8-23 14-50 41zm-149-33q-8-1-3-6c15-18 29-47 31-66 2-9 1-9 11-12 37-14 47-36 49-108l2-51 1-10 14-1 22-1h7v22l-1 62v40l3 10q7 26 26 39c6 5 6 5-7 18q-80 77-155 64m48-14c30-4 74-29 94-55 5-6 5-7-3-18-17-27-19-41-18-105 1-46 1-47-5-48-13-3-15 2-16 53-1 52-7 73-27 94-8 7-13 11-28 20l-7 13-8 23c-6 15-7 18-3 21q1 3 8 3zm61 10 5-4q18-10 49-39c11-12 26-24 31-29 11-9 12-10 6-11h-4 4q9-1 2 5l-38 34c-22 22-55 48-55 44m281-7q-33-3-61-37-30-36-62-24l-6 2q35-19 71 24c16 20 40 33 61 34q17 1 0-2c-23-4-38-15-57-40q-26-33-48-40l-2-1c9-1 30 14 47 35q6 6 8 6l13 5c55 26 102 2 152-78l7-11 3-3-2 3q-48 83-98 99-3 1 0 2 3 2 5-1c0-2 7 4 8 7q0 3 4 5 5 2 3 4c-7 4 2 3 12-1 30-14 59-45 92-102q4-5 1-5h1q5-2-1 6c-44 80-99 120-151 113m-34-4c-9-5-18-13-35-32q-12-13-25-18l-4-2q15 2 42 33 10 12 25 19l7 4zm-427-5 10-7c21-14 38-36 41-53v-1c1 13-17 38-36 52zm225-9 20-20-2 4zm-330 6-16-6-16-4q-8 0-5-7 1-4 8-6c19-9 20-28 2-37-12-7-12-7 10-15 21-6 19-7 17 3-3 19 1 44 10 62l5 11c0 1-8 1-15-1m-170-9-2-4-5-13c-5-15-5-15 2-9 10 8 26 14 33 13 4-1 6 5 2 6l-8 1q-9-2-13 4-6 6-9 2m7-3q6-7 16-5 15-1 0-3-13-2-26-11l-4-3 8 24q1 4 6-2m246-4c-18-19-24-36-7-20 16 15 28 13 46-6q20-18 9-2-10 16-33 29c-8 6-8 6-15-1m-313-7q-6-6-11-7l-3-2h3c8 2 9 4 15 13q1 1 13-11 12-14 6-11c-6 3-19 6-26 5q-15-1-14-3l8 1q11 3 28-3 12-3 7 1c-17 22-21 25-26 17m771-5c-16-6-25-12-37-24l-21-18c0-2 12 7 22 17 14 14 21 18 38 25l6 2zm-696-2c-5-2-18-11-21-15l-2-3 3-2q6-5 14 0 4 3 5 0c2-4-5-9-11-8l-6 1c-7 1-1-7 8-11 19-8 35-4 34 8v4-5c-2-12-19-14-36-4q-9 5-1 5c10 0 17 8 12 13q-2 2-2 4l-4 2q-10 3 6 8 18 8 19-6c0-5 4-17 5-16l-1 4-3 11q-1 17-19 10m-88-16-4-4 1-3 1-25 4-5 4-4 4 1c10 1 32 15 32 20q0 6-8 2-7-4-12-1-3 5 1 5c8-5 21 5 14 10-3 3-20 8-26 8h-8zm20 1 10-4 5-2h-4c-10-2-15-10-10-15q4-4 12 0c13 5 5-6-9-14q-25-15-24 11l-1 13q-4 16 21 11m27-4c-4-3-3-15 2-17q5-1 10 2l4 2-1 5q-3 15-15 8m11 0c3-2 3-13 1-14q-10-6-13 5c-1 8 6 13 12 9m712-8c-40-21-79-75-78-106l2 7c8 39 38 78 77 98l8 5zm61 1c-66-6-125-62-129-122-5-65 80-79 96-15 10 41 52 63 83 44h4l-2 1-7 3c-33 14-69-8-79-48-18-65-102-48-94 19 9 69 73 118 153 117h22l4-3q17-10-4-6c-28 5-72-2-98-16-72-39-92-140-28-140 18 0 26 8 35 34q18 55 65 55c12 1 28-2 31-5l1-1 1 2c2 11 17 18 34 18 7 1 8-1-11 27-26 39-30 41-77 36m-215-26q-27-5-34-35a1408 1408 0 0 1 4-146v-5l-38 1c-34 0-64 2-65 3-2 1-5 60-6 97-2 56-12 73-44 74l-9 1-6-8q-10-12-18-13c-16-3-18-7-18-44a1730 1730 0 0 1 28-286c7-44 11-58 22-69 22-22 70-15 81 13 4 13 4 22-4 61-9 39-15 78-15 84v2h42-43c-2-1 5-38 16-94 12-56 0-77-43-77-35-1-45 15-57 92l-6 33c-9 50-17 143-19 213-2 53 1 70 11 70q6 0 2-5c-4-7-5-50-3-80l7-53 1 1q2-1 2 2v2h3q7 0 5 3h-4q-5 0-1 2c3 1 8 0 7-2l1-2q3 0 7-2h9l3-1h10l2 1h3l6 1 7 2h4l1 4v18l-1 49c-2 51-3 54-13 64q-15 12-32 8-7-4 0 5l4 5 8-1c32-2 40-17 43-78 1-38 4-92 6-93 2-3 102-5 104-2q2 0-1 27c-8 123-2 152 35 158 36 5 51-13 53-62a1401 1401 0 0 1 35-292c9-35 7-51-5-63-21-21-67-14-79 12-5 11-16 64-23 109-5 30-3 28-17 27l-11-1h11c13 0 11 3 16-27 3-25 5-33 13-69 10-50 22-64 56-64q61-2 39 82a1355 1355 0 0 0-34 286q0 74-58 62m0-10q-16-4-21-18a612 612 0 0 1 4-135q0 3 2 0 1-1 3 2l4 2c0-2 5 0 5 2q2 3 5 2l-1-2-1-1q3-2 0-3t1-4h3q2 2 3 1l3 1h1q0-4 4-1l2 3 5-1q10-1 10 4l1 2 6 1q7 1 3-3l-1-1 4-1c5-3 5-3 4 40l-1 48c1 8-2 35-3 42-5 15-28 25-45 20m18-13c14-7 24-31 19-45-4-8-13-3-13 8q0 13-9 20c-11 9-10 9-10 13q1 8 13 4m19-63q3-4 0-9-4-3-10 2c-4 5 4 12 10 7m-515 70 5-6c19-19 10-60-17-74l-9-5h-8q-18-1-34 11-5 5-7 0c-2-4-12-14-18-17-7-3-6 0-7-30l2-14v40l3 2 5 3 2-33c0-34 0-36 3-34q4 2 4 0v-1h2l6 1 6 1q3 2 9-1l4 1 2 2 1-3q0-2 2-1l5 1 3 1 2 1h4q2 3 7-2c8-6 9-2 10 27l3 43c3 10 50 3 79-11 28-14 42-26 61-53q2-4 4-3h1v-1l2 2 1 2h5l5 1q0 4 6 3l1-3q2-3 6 0l4-1 4-1q2 1 1-1 0-4 4 0 3 5 2 1l8 2 4 2h3l6 1q7 0 7 2c1 4-12 32-21 43l-8 11c-27 40-97 77-159 84-9 1-10 1-13 5-4 5-4 5 10 3 126-11 211-96 218-217v-15 16a229 229 0 0 1-227 219h-6zm138-72 5-6q6-2 0-5-3-3-4-6-3-7-6 1l-4 5q-5 1 0 6l5 6q1 7 4-1m23-23q3-7 8-9 6-3-1-6-6-4-6-8c0-7-5-7-7 0q-1 4-5 7c-5 4-5 4 0 8l4 4q5 14 7 4m21-36 2-5c1-7-8-11-13-5-6 7 5 17 11 10m-87 132c32-15 41-21 58-33a223 223 0 0 0 63-74 234 234 0 0 1-121 107m96-24-11-5 8-10 25-26c1 0 3 37 1 38-11 9-12 9-23 3m658-22c25-31 73-57 104-56l9-1v-1l-7-6c-11-8-10-9 5-16q14-6-15-6c-40 0-99 37-122 75l-2 4c0-2 5-11 11-18 36-43 96-71 132-60q9 1-5 6-16 8-6 12 18 12 4 12c-32-3-83 25-107 57l-5 5zm-130-10c28-2 40-21 29-45-7-15-15-21-77-57-37-22-67-54-74-78q0-2 4 5c16 34 34 50 88 82 38 23 50 31 57 43 16 25 1 52-29 51h-6zm94-7c-5-12-23-24-36-25l-7-1 4-1q6-1 2-3-2 1-3-7-1-18-18-36-7-7-6-9c3-1 12-2 15 0h18q6-3 11 0 2 2 8 1 6-3 4 4v4l29 2c5-1 12 12 14 26q1 11 6 5c5-3 5-4 3-16-11-46-37-77-94-108-45-25-61-41-66-60-4-21 14-44 36-45h7-6c-34 5-48 41-25 66q12 14 45 32c69 40 92 65 103 112 4 16 4 15-4 21-13 11-31 31-35 39q-2 5-5-1m-1257-6c-4-52-55-87-86-58-5 5-7 6-14 6q-10 2 4-9c19-16 47-50 58-71q4-11 7 1 30 63 102 82 13 2 14 4l-29 13q-41 14-51 35-5 11-5-3m26-33c14-8 14-10-12-29q-28-20-37-34c-12-17-12-17-25 2-9 13-9 12 5 17q31 11 49 45l3 6 4-1q4 0 13-6m1128 27c-12-2-17-9-24-32l-6-19q-6-9 2-4c17 9 37 22 43 28 14 17 6 32-15 27m52-17c-2-27-10-36-58-65-53-31-70-45-85-66-14-21-22-53-19-78l1-8v11q-3 53 32 89c15 16 26 24 71 51 42 25 52 34 57 51 2 7 4 22 2 23zm-760-1c-9-4-4-125 9-196 7-43 5-39 18-41 111-23 154 136 57 209-22 17-71 33-84 28m21-3c58-10 99-48 111-101l3-12v-40l-3-11c-15-56-54-81-107-69-9 2-9 1-13 24l-4 25c-9 46-15 174-9 184 1 2 12 2 22 0m-13-8v-63l1 31v31h2c7 1 34-7 48-14a119 119 0 0 0 61-72c1 1-2 10-6 19-13 27-39 50-70 61-15 5-34 9-36 7m19-24c-3-9 4-101 12-148 3-20 2-19 13-19q38 0 50 45l3 10v17q1 46-35 76c-13 11-41 24-43 19m26-22c16-8 32-30 38-50 11-41-9-87-36-80-6 1-14 60-15 106v23l2 2q2 5 11-1m66-109c-7-27-27-48-51-53l-3-1c8-1 25 8 34 16 9 10 24 38 22 44zm853 165q2-4-9-15c-8-8-8-9 0-13q15-7 6-12c-23-10-59-3-93 16-9 6-10 6-11-4-7-44-36-78-102-116-35-21-38-23-45-31-4-3-10-13-9-14l3 5c5 10 12 15 53 39 36 22 57 38 71 55 14 16 26 41 29 59 3 12 2 11 11 6q21-11 40-17c37-9 75 2 49 15-9 4-9 4-2 10q13 14 10 18zm-305-7a58 58 0 0 0-106-18l-4 5c12-37 74-45 98-12 6 8 15 26 13 27zm-96-59 6-48c2-18 2-18 7-8q8 17 29 38l12 13h-13c-15 0-23 2-34 6q-9 5-7-1m-331-71v-22 7q2 13 3 4l3-20c1 4-3 34-4 35zm-12-16c-6-115-93-191-200-175l-9 2-6-5c-17-16-44-15-63 2q-5 5-5 3c11-19 50-23 69-6l5 4 10-1c107-16 205 72 200 182zm577 3c-18-6-27-17-35-43-7-21-14-27-32-27h-9l-7 4q-11 4-14 16l-1 5v-4c4-25 45-31 58-8l6 16c9 26 19 37 40 42l4 1zm-1131-14c-10-5-12-38-2-45 13-11 26 1 26 23 0 17-11 27-24 22m1138-1c-16-6-25-15-32-36q-10-35-36-36-7-1-2-1 28-1 39 36c12 35 38 47 68 31 11-6 24-27 21-34l1-1c3 0-3 18-9 26a49 49 0 0 1-50 15m-445-7v-7l1-5v6q-1 7 1 6l77-1 1-7 1-6v7l-1 7zm378-7q-30-19-10-23c10-2 12 1 19 19 5 14 5 14-9 4m-511-14a178 178 0 0 0-201-144l-10 1-6-5a55 55 0 0 0-73 4q-5 5-3 2c13-20 53-24 76-8l7 6 8-1a179 179 0 0 1 202 145m366-24c-1-7 7-30 15-45 39-69 142-92 208-45 9 6 19 15 18 16l-5-4a144 144 0 0 0-236 78m-345-11c-1-4 11-64 15-76 10-34 52-50 87-33 29 14 36 43 23 97l2-15q15-86-54-87-50-1-61 55zm324-6 2-12c12-52-8-85-53-84-37 0-53 17-64 68l-4 16c-1-2 6-33 9-41q12-41 55-44c42-3 68 27 61 69-1 10-6 30-6 28m16-9c2-9 12-26 23-40 51-68 161-79 221-23l7 7-2 3q-1 3-3 1c-2-1-2-6 0-5q3 1-7-8c-34-35-111-43-164-16-34 17-55 40-74 81l-1 2zm352 0c25-9 44-29 46-50q4-32-29-8-17 11-22 12l8-9c35-35 50-93 26-98-6-1-10 2-36 30l6-8c26-27 33-30 39-13 10 23-3 57-30 86l-9 9 4-2 15-9c15-11 21-12 26-7 17 17-15 63-47 68zM492 2327q18-34-8-16c-10 7-10 9-6 15q8 13 14 1m232 361-7-5-8-4q-6-2-5-5-2-4 9 0l13 4q12 3 12 6c0 5-8 7-14 4m12-32c-13-3-14-4-14-7 0-7 10-6 20 1l6 4q3 0 3 2c0 3-2 3-15 0m270-1q-6-4-12-1l-3 1-1-2c-2-7 16-8 19-1q4 7-3 3m-603-138q-5-3 1-8 5-5 9 0c5 7-4 14-10 8m-30-18c-11-3-21-24-14-29q2-2 2 1c0 4 7 10 10 9q2-1 2 2l1 2 2-2q0-3 3-4 5-2 3-3l1-4v-3q-3-1 1-6l2-3 1 2 4 2q4-1 6 6c9 16-6 34-24 30m1287-402c-21-8-27-37-11-52 30-30 72 3 52 41-6 12-26 17-41 11m28-11 4-3q2-3 3-2 4 1 4-5v-1l2 2v-2l1-2c2 0 0-5-3-6l-2-2q-2-5-9-5h-5l-4-1h-3v-5q2-11-6-14-19-7-19 18l-1 8q-3 1-1 3l3 7q-3 1 1 7 3 6 18 4l8 1c-1 1 6 0 9-2m276-32q-17-6-11-20l2-3h5q8 0 8-6 0-8 9-2c17 9 5 38-13 31" style="fill:#8dcbef" transform="matrix(1.2 0 0 1.2 -304 -2100)"/><path d="m1646 2650-15-14q-27-26-29-46-1-11-4-7c-3 2-6-9-6-22v-4c-3 0 2-13 8-20 14-15 40-10 54 12 6 8 6 8 11 0 13-24 40-33 60-20q11 7 1 2-14-8-24-7c-13 2-29 12-34 22q-4 10 0 6 6-5 7 3-1 7 5 2l9-3-7 4-14 11q-10 11-1-1 5-7 0-3-5 8-18 0-9-6-13-6l2 1q8 4 15 12l5 6-7-6c-35-32-65 1-38 42 10 14 27 32 35 35q3 3-2 1m2-107c-4-6-19-14-28-13q-10 0 0 2c7 1 10 2 25 11l4 2zm-315 76-6-6q-3-4-8-5-10-4-12-9 0-5 3-9l2-2-2 4q-5 10 9 14 6 1 10 7 4 8 12 6c3-1 8-4 6-4q-4-1 3-7l6-7 3-2 5-4 4-4-4 6q-18 31-31 22m-805-46c-68-10-71-90-9-227l23-51c33-68 32-63 15-60l-59 6c-4 0-3-1-6 9-12 55-90 56-108 2-11-30-11-93-1-114 15-33 56-41 83-18l6 5 11-1c47-2 112-10 150-19 47-10 77 22 72 75-3 23-4 25-42 106-44 93-62 151-65 220q-6 75-70 67m28-21q14-4 21-16c6-8 6-12 10-49a427 427 0 0 1 24-112c7-26 31-82 51-122 29-57 35-79 30-104-4-19-18-34-37-37l-6-1-16 4a587 587 0 0 1-108 16c-21 3-55 5-57 4l-6-5c-23-20-56-16-68 9-11 21-8 87 4 111 22 41 84 28 84-18v-8h2l18-2q42-2 75-8c15-3 15-3 11 6l-50 108c-28 57-52 136-52 172 0 41 31 64 70 52m-32-9c-9-2-19-11-19-16l-2-6q-2-3-2-8l-2-5c-6-2 3-59 10-58q2 0 2-2-1-2 3-1l8-2q4-4 7-1l3 2-3 3q-5 6 8 3 10-1 9-3l1-1 1-1 1-3q2-4 3 6v6l-4 3q-6 5-1 7 3 1 5 6 4 9 7 0 5-9 6-1 0 3 2 4 4 2 5-4l1-2c2 0 2 28 0 42-2 26-21 38-49 32m3-17 2-4q0-3 3-1c2 1 3-4 1-5l1-5 2-5 3-2q7-3 9 1l1 2 1-2v-2l-1-4q1-3-9-7c-7-1-12-11-12-20q-2-13-8 5-3 18-14 18-3 1-4 5 1 5 7 3 1 0 5 4l5 5v5q2 13 8 9m33-79-5-1q-4-2 0-5 3-4 4-2l2 1q4 0 4 4l-1 3q0 3-4 0m12-3-2-6-3-6-1-1 1-2 3-3 2-3q0-4 4-3l4-1v1q-1 3 1 3 2 1 2 3l-1 7q-1 9-4 10l-3 1zm76-255-5-4-6 2q-15 7-10-7l2-7-3-5c-8-11-7-12 3-12q8 0 9-4c9-12 10-12 15-2l3 6 6 3q14 3 3 11l-5 5v7q2 17-12 7m428 372q-47-9-46-60v-12l4-8c8-16 19-24 45-32 24-8 36-15 53-32 16-17 16-19 5-18-70 11-132-35-147-107l-3-13v-22q0-82 56-128c53-44 140-48 191-9l8 6 1-11q-1-21 13-27l5-3-3-7c-14-30-11-66 6-74 13-7 21-2 47 26 16 18 30 30 59 52 13 10 30 25 29 26s3 7 5 8 7 14 9 22c5 22-3 46-18 56-5 4-18 9-14 6q2-2 0-1l-6 1c-10 1-11 2-16 5l-4 4 3-1 2 1c-18 7-44 8-60 1-8-3-8-3-6 12 19 108-24 233-100 294-37 29-89 49-118 45m25-20c122-21 214-192 179-333-34-137-229-141-274-6-38 114 60 216 163 171q4-1-3 13c-21 40-48 63-91 76q-24 7-30 22l-3 6v24l4 8q13 27 55 19m-29-10c-19-7-26-29-13-42l6-6q0-2 3-2l3-3q0-4 11-7 24-8 38-17l15-8 4-2 4-3q0-2 6-9l6-7 6 1 6 1q3 2 0 3-3 0 0 0l1 1h3q4 1 1-2l-2-1 4-1q6-1 5 3v3h8l11-1 7-1 4-1q2-2 4-1l5-1 4-2 5-1q4-2 4 1l-1 3c-2 9-29 45-34 45q-3 0-3 2c1 6-33 32-54 40l-14 6c-15 8-42 13-53 9m145-155v-5q0-5-6-12-3-3 5-5 6-1 8-4 7-8 8 3 0 5 3 8 8 7-2 7-5 2-9 5-4 5-7 3m11-51c-6-8-5-7-14-7q-19 3-6-13l4-6-3-7q-8-14 9-10l8 2 3-3q15-14 15 4 0 7 8 13 12 7-3 11-8 2-9 11-4 17-12 5m-103-22c-40-13-43-89-3-108 34-15 67 10 67 52-1 41-30 66-64 56m30-11c36-18 25-83-13-83q-35 2-35 48v11l4 8c8 17 28 24 44 16m167-79q2-1-3-1-12-1-18-7l-2-3-2 2q-6 4 13 8c9 2 10 2 12 1m19-10q19-3 10-7c-31-15-26-65 6-65 17-1 30 18 22 29l-2 2v-5c-1-20-27-25-36-7-16 35 41 59 58 24q23-43-39-87c-27-18-38-28-62-54-20-22-27-25-33-15-13 21-1 57 29 89q11 10 11 12c-3 0-16-8-26-15q-33-20-23 18 10 35 51 44 16 4-7 6-13 3-13 8c-2 16 26 27 54 23m975 356c-9-4-21-15-21-21l-4-8-3-6-7-1q-11 0-17-8-3-5-7-3c-11 6-41-3-47-12l-5-6q-5-6 12-36 11-19 27-10l7 3c8 4 21 19 21 25q1 6 8 6c6 1 15 5 18 9 3 5 25 8 25 4s26 6 32 12c18 19-14 61-39 52m16-7c8-2 23-33 16-31l-18 2q-12-1-24-8c-9-4-9-4-11-1-5 11 10 32 26 38zm-45-38c5-3 7-14 3-19-6-8-21-1-21 10 0 6 12 12 18 9m-26-11c2-1 6-7 6-9l-9-5q-21-11-25-27l-1-5 2 1q4-1 2-3h-3l-4 2c-8 0-19 32-13 39 6 8 38 13 45 7m-1371 48-16-3c-66-14-80-15-109-4q-63 23-78-32c-12-42 9-77 96-154 56-50 74-75 76-107q2-29-17-31-20-3-23 28c-7 73-101 83-119 12-15-59 28-133 88-153 147-49 249 93 164 230-14 22-60 69-80 82-7 4-3 7 22 10 25 4 33 3 45-6 31-23 67 24 55 71-11 42-53 65-104 57m35-17c27-4 48-20 55-42 13-38-12-80-36-60-13 12-23 13-66 4a253 253 0 0 0-45-6l36-31c70-58 93-94 101-152 13-112-108-181-207-116-62 41-73 145-17 157q54 11 61-45c7-55 62-58 63-3 2 44-17 70-99 143-66 58-86 96-68 131q9 19 31 19h9l11-4c34-14 55-14 109-2 30 7 46 9 62 7m-204-15c-10-6-16-25-12-39 3-11 9-22 12-21v-2q0-2 2-6l15-18 6-7 2 3c4 5 16 6 19 2l3-1q1 0 0 0c-1-1 5-5 7-4q1 1 0 0v-3c1-1 6 3 6 6 0 4 6 7 7 2q0-2 4-2 3 0 3-2 2-3 4 2 0 4 3 3c2-1 6 2 4 3-9 6-3 13 9 10l13-1h10l2 2 5 3 4 1h3c3-2 24-2 33 0 20 4 21 4 32 3q17 0 30-9c8-5 9-5 14-2 13 10 16 40 5 51l-2 2-3-3q-4-7-1-11c5-4 2-12-4-12q-10 1-6 11 3 6-2 5-4-1-14 6l-12 6q-10 3-10 9c0 10 16 10 34-1 6-3 11 1 7 6-9 9-31 13-48 10l-28-4c-15-1-17-2-16-4q0-3-1 0-1 2-5 1c-18-6-86-8-91-3q-3 2-6-1h-2l-1 1c7 3-11 12-22 12q-6 0-12-4m69-30q3-3 0-5l-3-3-4-3-1-3q-2-6-8-7l-4-2h-2v2q3-1 1 5c-1 13-2 12 3 14l7 1 3 1c1 2 7 2 8 0m0-40q3-1 0-2-3-2 1-3 6-3 6 0l1 2q2 0-1-4-3-2-2-3c0-2-5-1-7 1h-2v-1q4-1-1-3l-4 1c-1 2-6 5-7 3h1q2 0-2-2-6-4-7-1-1 1 0 0l2 1h1q5 0 4 3-1 2 1 2l2 1h2l1 1c-2 3 5 6 11 4m137-235q-1-4-6-6-6-2 0-6l5-6q2-6 5 0l6 5q8 2 0 6l-4 6q-4 8-6 1m-42-23-1-6q0-6-7-9-11-7 1-11 4 0 7-10 3-11 10-2l4 4 8-1h7v2q1 3-2 7l-2 5 2 7q6 12-6 9l-7-1-5 4q-7 7-9 2m504 349-3-2h-4l-2 2-1-3-1-4c0-4-6-3-6 1 0 5-14-1-14-6v-3h-4q-13 1-7-9 3-5-3-6l-4-2q-1-8 6-4l1 2 3-2q9-4 7 2-1 6 6 2 4-5-2-6-4 0-4-4c1-3 10-2 13 1q4 5 6 0 2-4 4-1c1 3 9 2 13-2l6-5 7-3c7-7 18-11 18-7q-1 10-12 15-9 2 0 6t10 16q2 10 6-1c2-8 16-19 16-12 0 2-3 9-5 9l-1 2-2 2-4 5q-5 6-11 8-6 1-7 3-2 5-8 6-4-2 2-5 6-1-1-9l-3-5q-1-6-6 0-2 5-4 5-5 1-1 6 6 10-4 8m56-6c22-21 24-47 7-65-18-18-44-15-61 7l-3 4-1-2q-8-21-24-30-11-4 1 0l5 2-1-2c-4-6 5-1 14 8l6 6h3l9-3c40-28 88 22 62 63q-10 17-12 11l-8 5zm-128-2c-29-38-21-81 16-95 7-2 20-3 19 0l3 3 4 1h-12l-12-1c1-4-13 3-19 10q-9 11-1 3 14-13 4 1-8 10-4 7 2 0-1 4l-4 10-1 5v-5l1-5-2 2c-2 3-4 15-3 20v3q-2-1-2-12v-12l-1 5c-5 14 2 37 16 56l4 6zm382 5-7-2-7-1 3-2 5-1q2 0 3-3l2-2 3 2 1 2v8q-1 2-3-1M398 2408q-5-2-8-16c-1-10 0-9-9-14q-20-14 3-25c9-4 9-4 11-11q6-29 25-9l7 7h20l3 3q3 3 3 7l1 5-5 8-5 8 3 6q3 6 3 11l1 5-3 4-4 3-7-1-12-1-4-1-6 5c-9 8-12 8-17 6m13-13c8-7 10-7 18-5q20 7 11-10c-4-10-4-10 1-21l5-8-2-2q0-3-12-2h-10l-6-7c-10-10-10-10-16 10l-1 4-9 5-9 4v3q-1 3 7 7c9 6 9 7 10 17 2 12 3 13 13 5m1953-153-18-6q-3-3-11-3c-34-1-53-42-37-76l3-6q-1-1 2-3l2-4c2-4 18-19 36-33l15-10c-13 11-14 12-13 13l1 3-2 3 5-3 10-6q9-5-12 10-50 37-41 74c10 39 64 36 64-3 0-26-35-31-37-5l-1 6-2-3c-8-10 3-27 18-28 34-3 43 46 12 64q-8 4-1 5c15 4 33 5 44 1h1l-8 3-10 3q4 2 1 4z" style="fill:#ed98b6" transform="matrix(1.2 0 0 1.2 -304 -2100)"/><path d="M1759 2725c-32-3-70-15-96-30-10-7-8-7-21 0-29 14-79 23-104 17q-21-3-4-16c16-15 16-14 5-25-22-21-24-38-3-29 17 7 47 12 67 11 10-1 10-1 3-11-33-49-33-105 1-117q26-10 50 17l3 3 2-3q11-15 24-21l9-4-1-2c-3-15-3-71 0-107q4-58 0-39c-12 47-24 70-50 100-44 52-126 87-194 84h-14l-2 2-1 2 3 4c4 6 4 9 1 20l-4 13-2 8-1 6q5 15-12 14-11 0-15 4c-7 12-19-2-27-29q-3-13-11-3l-6 5-3 2-6 7q-7 7-3 7c2 0-3 3-6 4q-8 2-12-6-4-6-10-7-14-4-8-15v-17l1-12q-1-14 6-19c5-5 5-4 0-11-14-19-21-43-16-56l1-5v12q0 11 2 12v-3c-1-5 1-17 2-19l2-2v13c0 23 13 48 29 56q16 8 24 15l5 4h5q5-1 8 1 4 3 13-1 5-3 17-4l11-2 12-8 17-12 3 1c1-1 3-2 9-12 27-41-21-90-62-63q-11 7-5 0c8-7 22-12 34-11h8l9 5c27 14 36 55 17 74l-5 6-2 4h6c100 0 200-77 221-171 34-153-59-275-194-255l-10 1-5-4c-18-17-47-15-66 4l-5 4-1-2c-4-5-4-5 2-10 22-20 51-22 73-5l6 5 10-1c114-13 206 72 207 189q0 31 5-3l9-69c3-18 14-75 17-84 17-54 103-50 113 4 3 16 2 28-7 70l-10 58c0 1 77 2 79 0q2 0 2-7l12-63c11-63 23-81 54-87 52-9 81 25 67 81l-22 121c-9 58-13 101-14 164-1 47-2 56-11 68-5 7-5 7 10 7 26 0 43 7 63 27 29 29 67 37 100 21q19-8-7-8c-70-2-133-53-147-118-18-91 91-123 116-35l5 15c21 42 88 28 75-16-5-16-16-25-62-53-39-23-49-29-63-45-65-69-41-180 46-224 53-27 130-19 164 16q10 9 7 8c-2-1-2 4 0 5q1 2 3-1l2-1-2 3-2 3-5-5c-89-84-248-12-239 107 4 55 23 78 104 126 48 29 56 38 58 66l1 9-4 7-8 14q-6 16-33 15-45-1-58-50c-16-64-101-50-96 15 4 57 56 110 119 121 13 3 55 3 59 0 6-3 45-56 45-61h8c1 2-29 45-41 59q-55 63-119 33l-13-5q-2 0-8-6c-26-30-43-39-73-37s-47 12-98 59q-94 90-203 56c-18-5-18-5-9-12 48-39 68-97 44-125-19-21-53-14-68 14-5 8-5 8-11 0-14-22-40-27-54-12-21 24-15 65 14 106 11 14 11 14-1 15-27 3-55-1-75-9-16-7-12 3 9 20 12 9 11 12-5 28-11 10-10 10 19 10 28 0 50-5 81-19 14-7 12-7 22-1q143 86 281-60c52-56 89-62 123-21q49 60 121 25c29-13 67-55 92-101q6-13 14 6l1 3-5 6-18 16q-6 5-17 19c-57 75-136 93-183 40q-19-22-26-26c-27-18-54-7-99 39-67 69-124 97-189 92m12-52c51-4 84-21 132-67l38-34q7-5-1-5c-19 0-39-16-45-35a667 667 0 0 1-1-151c-1-1-79 0-81 2-2 1-3 17-4 60-3 68-3 70-10 85q-13 22-42 28-6 0-7 2c0 37-12 63-44 94l-9 12c3 3 28 8 48 9zm-369-53q4-6 13-4l8-1c4-1 2-7-2-6-7 1-23-5-33-13-7-6-7-6-2 9l5 13 2 4q3 4 9-2m-60-9 11-12c10-12 10-12-1-9q-17 6-28 3c-13-3-17 4-4 7 8 2 9 3 13 8q4 8 9 3m81-10q3-2 4-10l4-13c7-17-9-24-33-15-9 4-15 12-8 11l6-1c6-1 13 4 11 8q-1 3-5 0-8-4-14 0l-3 2 2 3c8 11 30 20 36 15m-76-16c11-3 12-4 12-8 0-5-10-9-16-6q-4 1-1-5 5-3 12 1 8 4 8-2c0-5-22-19-32-20l-4-1-4 4-4 5-1 25-1 3 4 4 3 4h8q7 0 16-4m34-4 1-7 1-5-4-2q-13-7-14 9c0 7 12 11 16 5m576-32c27-5 36-20 37-62a1409 1409 0 0 1 34-286q22-84-39-82c-34 0-46 14-56 64-8 36-10 44-13 69-5 30-2 27-23 26a681 681 0 0 0-83 1c-2-1 6-43 15-86 8-39 8-48 4-61-11-28-59-35-81-13-11 11-15 25-22 69l-7 39a1682 1682 0 0 0-19 276c2 11 4 13 16 15q8 1 18 13l6 8 9-1c32-1 42-18 44-74 1-37 4-96 6-97 1-1 31-3 65-3l38-1v5l-2 25c-2 27-3 112-2 121 5 26 27 41 55 35m-317 94c-29-25-43-51-35-70 7-18 27-19 47-1 8 8 7 8 13 0 18-21 46-28 57-16 17 21-15 67-60 88-13 7-13 7-22-1m23-6c32-16 57-45 57-67s-28-17-50 7c-9 10-11 10-21 1-39-36-57 6-19 46 17 18 19 19 33 13m641-141c-2-2 16-21 32-33 27-21 56-32 79-30q15 0-4-12-10-4 6-12 19-7-10-8c-41-3-107 38-127 77q-4 7-6 2-3-4 0-5l2-3c4-8 22-28 35-39 8-6 8-5 4-21-11-47-34-72-103-112-55-31-69-56-47-83 22-29 63-17 75 22 17 51 85 50 91-2l1-5 5 1q5 0 9 3c6 4 29 8 38 6q4-2 0-3-3-1 5-3 27-7 32-17 8-16-15-17-15-1-2-4c35-8 64-51 47-68-5-5-11-4-26 7l-15 9-4 2 9-9c27-29 40-63 30-86-6-17-13-14-39 13-25 28-39 39-59 51l-5 3 2-3-1-3a501 501 0 0 0 59-58c23-23 31-26 43-19 14 8 17 44 4 71q-5 11 1 12c26 5 16 55-16 76-6 4-6 4-4 11 9 25-27 45-68 35l-15-2-4-1-2 8c-8 38-47 56-82 39q-19-7-28-37c-7-23-16-30-33-30-29 0-41 26-20 46 7 8 10 10 45 31 66 38 95 72 102 116 1 10 2 10 11 4 34-19 70-26 93-16q9 4-6 12c-8 4-8 5 0 14q20 19-1 14c-22-7-65 9-90 34l-7 7-1 6-1 7c-1 1-18 3-19 2m-990-35 5-7q10-14-4-1-9 8 1-3c6-7 20-14 19-10l12 1h12l-4-1q-4-2-3-3l1-26a1113 1113 0 0 1 15-202v-3l-4 1-6 1-3 1 4-4c5-3 6-4 16-5l6-1q3-1 0 1l-3 7-8 63q-8 73-7 142c1 30 0 27 7 30 8 4 21 18 19 20l-7-6c-9-9-18-14-15-9q3 3-8-1l-9-3-7 1q-14 3-24 13zm145-23a831 831 0 0 1 14-209c3-23 3-22 12-24 53-12 92 13 107 69l3 11v40l-3 12a132 132 0 0 1-133 101m27-10c62-15 99-59 99-118 0-62-40-100-92-90-8 2-10 10-18 65-6 41-10 141-7 145q2 1 18-2m-176-216q-19-4-13-8l2-2 2 3q6 6 18 7 4 0 3 1c-2 1-3 1-12-1" style="fill:#659fc9" transform="matrix(1.2 0 0 1.2 -304 -2100)"/></svg>