<?xml version="1.0" encoding="UTF-8" standalone="no"?>
<!-- Created with Inkscape (http://www.inkscape.org/) -->

<svg
   version="1.1"
   id="svg1"
   width="3260"
   height="1280"
   viewBox="0 0 3260 1280"
   sodipodi:docname="Gemini_Generated_Image_nc0hxmnc0hxmnc0h.svg"
   inkscape:version="1.4 (86a8ad7, 2024-10-11)"
   xmlns:inkscape="http://www.inkscape.org/namespaces/inkscape"
   xmlns:sodipodi="http://sodipodi.sourceforge.net/DTD/sodipodi-0.dtd"
   xmlns="http://www.w3.org/2000/svg"
   xmlns:svg="http://www.w3.org/2000/svg">
  <defs
     id="defs1" />
  <sodipodi:namedview
     id="namedview1"
     pagecolor="#ffffff"
     bordercolor="#000000"
     borderopacity="0.25"
     inkscape:showpageshadow="2"
     inkscape:pageopacity="0.0"
     inkscape:pagecheckerboard="0"
     inkscape:deskcolor="#d1d1d1"
     inkscape:zoom="0.17484926"
     inkscape:cx="2299.1232"
     inkscape:cy="1106.6675"
     inkscape:window-width="2160"
     inkscape:window-height="1406"
     inkscape:window-x="-11"
     inkscape:window-y="-11"
     inkscape:window-maximized="1"
     inkscape:current-layer="g1" />
  <g
     inkscape:groupmode="layer"
     inkscape:label="Image"
     id="g1">
    <path
       style="fill:#cc3b5c;fill-opacity:1;stroke-width:13.4888"
       d="m 356.1455,931.98208 c -22.8692,-11.5532 -32.4119,-33.4412 -32.1029,-73.6348 0.5328,-69.3212 34.9545,-167.4916 104.7791,-298.8289 28.8851,-54.3317 56.8988,-116.272 53.82,-118.9998 -1.1096,-0.9831 -17.9436,0.5271 -37.409,3.3561 -19.4653,2.8289 -52.2793,6.6311 -72.9199,8.4492 -20.6407,1.8181 -46.5362,4.1612 -57.5457,5.207 l -20.0172,1.9013 -1.7439,16.2224 c -4.206,39.1272 -38.4481,67.0269 -69.6325,56.7351 -12.7812,-4.2182 -26.1223,-15.2404 -31.8477,-26.3121 -7.0156,-13.5666 -12.7441,-49.4655 -14.5163,-90.9693 -2.0321,-47.5895 0.6842,-59.5621 17.2779,-76.1558 21.0707,-21.0707 42.9924,-22.3031 70.4366,-3.9598 12.1786,8.14 14.4144,8.6016 41.7199,8.6132 51.6025,0.022 125.03,-8.0714 196.361,-21.6432 20.0633,-3.8173 45.0039,-6.9406 55.4237,-6.9406 18.4874,0 19.2397,0.2947 31.1475,12.2025 14.2481,14.2481 19.2569,29.0604 19.0814,56.4281 -0.1821,28.395 -11.1008,57.6346 -50.349,134.8312 -66.1795,130.167 -94.1421,216.1454 -106.0244,325.9996 -6.0247,55.7001 -15.3605,79.0731 -35.8068,89.6463 -13.1028,6.7758 -44.7021,5.6471 -60.1318,-2.1477 z"
       id="path18" />
    <path
       style="fill:#cb395d;fill-opacity:1;stroke-width:13.4888"
       d="m 669.6994,906.62598 c -19.2117,-5.2016 -33.0618,-28.0385 -33.1638,-54.6822 -0.1254,-32.7781 16.5212,-61.1335 65.7029,-111.9164 18.0899,-18.6788 48.3326,-47.124 67.206,-63.2117 37.4538,-31.9254 84.535,-79.5895 97.963,-99.1757 37.6513,-54.9187 41.0841,-112.9447 8.3805,-141.6585 -11.88,-10.4307 -24.1397,-13.5353 -46.2181,-11.7044 -28.9708,2.4025 -44.4604,20.715 -51.4567,60.8343 -2.6318,15.0923 -7.2999,30.2749 -11.5251,37.4847 -13.3589,22.7952 -38.709,31.4467 -67.564,23.0583 -28.1196,-8.1746 -40.4866,-28.4733 -40.3355,-66.2049 0.1756,-43.8461 18.316,-90.3141 46.3154,-118.6406 28.5383,-28.8716 80.1708,-50.4772 127.3345,-53.283 75.4796,-4.4902 142.0129,31.0927 170.0643,90.9527 14.7716,31.5218 18.0376,46.2852 18.2288,82.4007 0.1722,32.5095 -5.8524,58.5589 -20.1546,87.1458 -24.6147,49.199 -73.6707,104.8284 -135.2357,153.357 -49.5569,39.0633 -56.0183,44.7252 -53.6935,47.05 1.1177,1.1177 13.4147,3.0826 27.3267,4.3663 13.9119,1.2837 43.8729,5.0852 66.58,8.4477 48.0599,7.1169 68.1023,6.1215 87.7919,-4.3601 7.4249,-3.9526 16.5752,-7.1865 20.334,-7.1865 11.1086,0 25.1403,17.3625 28.9802,35.8596 8.1148,39.0888 -12.9686,79.5381 -50.0669,96.0553 -19.9351,8.8756 -56.0128,8.2915 -108.665,-1.7593 -65.5044,-12.5043 -75.7276,-13.645 -108.6523,-12.1238 -24.0497,1.1111 -37.8729,3.4727 -58.6346,10.0173 -35.4673,11.1801 -37.1558,11.5001 -46.8424,8.8774 z"
       id="path19" />
    <path
       style="fill:#cf3c5b;fill-opacity:1;stroke-width:13.4888"
       d="m 1184.613,919.97518 c -20.5831,-7.3409 -33.4111,-26.0534 -33.4111,-48.7376 0,-27.2915 12.1947,-41.6202 46.3262,-54.433 52.0772,-19.5497 86.1777,-43.6307 115.1518,-81.3177 17.017,-22.1342 39.5016,-68.8793 35.2003,-73.1806 -0.6625,-0.6625 -12.1643,2.6177 -25.5595,7.2893 -61.3454,21.3942 -112.6288,16.6852 -159.5547,-14.6507 -30.9762,-20.685 -51.5262,-49.0862 -64.9089,-89.7073 -6.2577,-18.994 -7.5876,-28.4583 -7.8359,-55.7623 -0.4294,-47.2351 8.9352,-79.3156 34.3535,-117.6864 31.7057,-47.8619 82.0926,-78.2668 141.8798,-85.6142 68.8427,-8.4602 121.7615,8.0624 165.3147,51.6156 34.8087,34.8088 53.5687,79.1808 59.9342,141.7593 7.166,70.4473 -11.0833,163.8609 -46.6512,238.7963 -33.2823,70.12 -92.7712,129.8555 -163.5382,164.2161 -44.7565,21.7313 -71.2279,26.498 -96.701,17.4132 z m 140.149,-341.3933 c 28.6219,-14.6716 44.6095,-41.0986 46.1324,-76.2556 1.1974,-27.6417 -5.4279,-48.2917 -21.5287,-67.1018 -29.3281,-34.2634 -83.5393,-35.0275 -116.9188,-1.648 -24.1655,24.1655 -31.9336,62.7694 -19.8578,98.6841 6.561,19.5131 28.8152,42.8368 47.3555,49.6312 17.6225,6.458 48.8751,4.8621 64.8174,-3.3099 z"
       id="path20" />
    <path
       style="fill:#fba5be;fill-opacity:1;stroke-width:13.4888"
       d="m 357.0069,971.18758 c -29.9387,-8.0634 -48.5943,-25.7629 -61.2317,-58.0937 -9.1803,-23.4862 -9.2284,-78.8165 -0.1042,-119.8922 14.5674,-65.5808 45.1857,-141.3237 96.4549,-238.6088 18.0048,-34.1647 32.736,-64.0834 32.736,-66.4859 0,-2.4025 -1.6085,-4.3517 -3.5745,-4.3315 -8.6395,0.088 -91.411,8.2222 -92.1075,9.0512 -0.4254,0.5064 -2.9467,7.5743 -5.6028,15.7064 -6.1154,18.7235 -22.4446,37.3696 -42.1089,48.0836 -12.7277,6.9347 -19.4939,8.545 -40.0587,9.5339 -21.7283,1.0449 -26.6081,0.3332 -40.0345,-5.8386 -44.5726,-20.4888 -57.7615,-55.1189 -58.0379,-152.3899 l -0.1463,-51.5102 9.3988,-19.1146 c 15.8258,-32.1854 43.3258,-50.8936 74.754,-50.8553 18.1691,0.022 30.5545,3.9572 50.3662,16.002 l 17.0401,10.3598 54.3325,-4.7757 c 65.3261,-5.7422 96.9722,-10.1644 156.9076,-21.9261 40.3279,-7.914 47.1593,-8.5494 61.3291,-5.7036 42.8776,8.611 72.8383,39.5024 76.9499,79.3402 0.8705,8.4344 2.3678,15.325 3.3274,15.3125 0.9595,-0.013 8.8221,-9.1406 17.4725,-20.2845 28.2128,-36.346 67.3941,-61.7959 114.8716,-74.6142 19.5117,-5.2679 31.3178,-6.4358 65.2835,-6.4584 47.5606,-0.032 64.8639,3.598 101.5161,21.294 51.4027,24.8177 89.3136,72.593 103.9236,130.9647 2.8706,11.4692 6.3561,20.8928 7.7455,20.9415 1.3895,0.049 5.275,-8.0484 8.6345,-17.9934 25.8155,-76.4203 79.7263,-128.262 157.4211,-151.3792 28.2325,-8.4002 91.8554,-10.6592 122.9219,-4.3643 141.8673,28.746 209.5936,173.915 169.8741,364.1195 -26.783,128.256 -95.4116,227.2543 -198.5269,286.3795 -76.2894,43.7435 -141.9323,46.8645 -179.1469,8.5173 -46.7842,-48.2079 -25.1313,-125.3496 41.2639,-147.0091 32.6646,-10.6558 75.1736,-34.9066 91.6234,-52.2699 9.9985,-10.5537 9.5407,-10.7849 -25.4756,-12.8686 -54.2708,-3.2295 -91.1127,-19.3556 -127.5302,-55.8215 -20.5459,-20.5733 -26.9228,-29.3146 -38.8194,-53.2132 -7.8293,-15.7278 -16.5938,-37.6038 -19.4767,-48.6133 -2.8829,-11.0095 -6.3268,-21.2414 -7.6531,-22.7377 -1.4065,-1.5868 -4.447,2.5839 -7.2963,10.0086 -2.6867,7.001 -11.6124,26.2408 -19.8347,42.755 -22.7156,45.6231 -52.6193,80.6477 -115.3237,135.0726 -11.3831,9.88 -14.7455,14.3929 -12.4407,16.6977 1.751,1.751 18.3787,3.8596 37.3156,4.732 33.1298,1.5264 34.5447,1.3467 47.0368,-5.9741 15.4122,-9.0321 25.6753,-9.4466 45.9628,-1.856 19.2339,7.1963 36.9003,25.0222 45.3713,45.781 9.841,24.1162 9.4676,61.5756 -0.8328,83.5522 -22.4754,47.9527 -80.0013,77.4065 -142.3839,72.902 -11.8407,-0.855 -41.4743,-5.7162 -65.8524,-10.8026 -62.1745,-12.9726 -98.279,-12.9929 -138.6909,-0.078 -35.1239,11.2249 -57.236,12.0607 -78.3846,2.9629 -16.7383,-7.2007 -32.5634,-23.4296 -41.3262,-42.381 -8.6931,-18.8006 -8.3845,-60.7337 0.616,-83.6955 14.6354,-37.3376 51.9068,-80.9651 121.9544,-142.7517 56.513,-49.8483 78.3944,-71.2075 98.982,-96.62 24.561,-30.3169 31.7945,-45.9307 33.3599,-72.0095 1.2112,-20.177 0.8014,-22.133 -6.4415,-30.7407 -15.8543,-18.8418 -35.6515,-8.7109 -41.2878,21.1282 -8.5395,45.209 -20.1558,65.6215 -44.963,79.0095 -27.01,14.577 -70.136,15.567 -100.1312,2.2987 -24.3139,-10.7552 -46.6756,-43.9924 -46.7974,-69.5572 -0.024,-5.0525 -1.1126,-10.8717 -2.419,-12.9316 -3.2753,-5.1645 -6.2626,-0.1837 -38.3805,63.9932 -56.771,113.4377 -84.4288,201.3256 -93.5279,297.2027 -3.5901,37.8281 -9.201,65.9591 -15.6394,78.4096 -20.0047,38.6847 -67.8994,57.1674 -115.1573,44.4394 z m 70.245,-21.7978 c 14.8304,-7.1792 27.5038,-23.6818 33.4928,-43.6121 4.2038,-13.9899 5.8851,-25.1831 12.708,-84.6053 6.1252,-53.3456 24.3263,-121.7661 48.6853,-183.0148 5.9423,-14.9415 28.6911,-63.1973 50.5528,-107.2352 41.0474,-82.6851 47.4598,-98.5493 52.599,-130.1283 7.6725,-47.146 -11.9796,-90.669 -45.0918,-99.8638 -16.659,-4.6259 -45.9839,-3.6661 -75.8708,2.4834 -59.6935,12.2824 -116.2991,19.6781 -188.7613,24.6621 l -27.7972,1.9119 -15.1449,-10.0526 c -45.8048,-30.4035 -92.2873,-15.0163 -109.7873,36.3432 -3.9695,11.6499 -4.455,21.5217 -3.0187,61.3779 2.4277,67.3678 10.0316,96.9517 29.5797,115.0844 14.9867,13.9017 26.4587,18.0855 49.5901,18.0855 15.3193,0 24.3066,-1.5069 31.4556,-5.274 22.0452,-11.6166 36.1855,-31.5368 39.657,-55.8665 l 1.8685,-13.0958 15.6973,-2.0083 c 8.6334,-1.1046 38.2166,-4.0824 65.7403,-6.6173 27.5237,-2.535 52.9184,-5.3044 56.4326,-6.1544 5.9323,-1.4348 6.184,-0.9613 3.5172,6.6173 -1.5798,4.4895 -15.1158,31.969 -30.08,61.0655 -55.683,108.27 -81.9861,167.8485 -98.1591,222.3371 -40.8823,137.7368 -15.8173,211.4755 69.7074,205.0715 11.6955,-0.8757 25.1655,-3.9959 32.4275,-7.5114 z m 829.6861,-16.489 c 61.0507,-21.1613 119.688,-62.887 158.4936,-112.7824 53.5409,-68.8416 84.8345,-151.9225 93.7507,-248.8974 6.0444,-65.7409 -3.5908,-126.158 -28.089,-176.1299 -11.1339,-22.7111 -17.3523,-31.1708 -37.9181,-51.5847 -28.0291,-27.8221 -48.535,-39.9367 -82.2345,-48.5832 -94.3076,-24.197 -195.9254,7.0423 -244.3223,75.1092 -32.1587,45.2291 -43.7138,80.8187 -43.881,135.1535 -0.13,42.2512 5.0346,64.2046 23.5457,100.0862 14.1214,27.3727 49.1727,62.3202 76.9364,76.7086 39.1727,20.3011 86.2317,27.0008 125.2285,17.8285 9.4237,-2.2166 17.5593,-3.6048 18.079,-3.0851 1.4113,1.4113 -11.386,20.9149 -24.9839,38.0764 -20.0531,25.3085 -61.4815,52.2684 -99.4175,64.6967 -40.1138,13.1419 -63.7634,44.9746 -60.0614,80.8435 2.7295,26.4463 18.7906,47.034 44.3223,56.8137 15.6528,5.9956 57.3319,3.7947 80.5515,-4.2536 z m -531.8174,-18.1717 c 24.713,-8.3556 30.265,-9.177 61.4815,-9.0961 27.5614,0.072 43.3204,1.9619 80.069,9.6048 57.2499,11.9067 96.6043,14.383 120.3054,7.5701 31.9573,-9.1862 54.1697,-28.1491 67.7041,-57.7992 9.2231,-20.2054 9.0028,-62.4434 -0.4265,-81.7439 -12.8641,-26.3316 -33.501,-35.8944 -57.4397,-26.6167 -37.4458,14.5126 -44.8387,14.9128 -102.9771,5.5739 -49.7109,-7.9851 -48.932,-4.0195 -7.429,-37.8226 62.3527,-50.7845 93.5137,-85.2286 122.6141,-135.5328 22.1177,-38.2335 28.6489,-62.2726 28.9507,-106.5575 0.2101,-30.8198 -0.8742,-41.0858 -6.3424,-60.0518 -24.0191,-83.307 -93.3584,-131.3486 -189.2663,-131.1328 -38.0964,0.086 -68.7867,6.73 -99.9547,21.6399 -65.7214,31.4393 -113.6522,118.2339 -102.7335,186.0329 6.8644,42.624 33.021,65.0105 75.9588,65.0105 24.7655,0 41.0195,-4.5007 53.5473,-14.8272 13.7863,-11.3637 20.1562,-24.5717 25.4807,-52.8332 4.9596,-26.325 9.9297,-37.5681 21.2457,-48.0609 13.986,-12.9685 33.5144,-12.0728 48.8894,2.2425 11.2056,10.4333 15.7373,22.1776 15.6502,40.5589 -0.2309,48.7196 -33.651,93.6565 -142.4595,191.5517 -60.125,54.0947 -80.4247,75.3592 -98.8022,103.4984 -24.8899,38.1109 -28.4387,70.8996 -11.416,105.4775 9.9151,20.1404 15.5986,25.9882 30.6748,31.5613 14.581,5.3901 33.1232,3.0964 66.6752,-8.2477 z"
       id="path21" />
    <path
       style="fill:#4d94bf;fill-opacity:1;stroke-width:13.4888"
       d="m 180.7809,727.69728 c -1.0148,-1.0148 -1.8626,-7.0996 -1.8841,-13.5218 -0.063,-18.9923 -2.5712,-23.5697 -18.8239,-34.3609 -8.4988,-5.6429 -15.4523,-10.8179 -15.4523,-11.5 0,-0.6821 7.7183,-4.704 17.1518,-8.9375 18.0719,-8.1102 17.4552,-7.1968 24.464,-36.2324 1.044,-4.3252 2.7204,-7.864 3.7253,-7.864 1.0049,0 7.9094,6.6159 15.3433,14.702 l 13.5162,14.702 17.0438,-1.5455 c 9.3742,-0.85 17.6715,-0.9179 18.4385,-0.1508 0.7671,0.767 -2.3652,7.3234 -6.9606,14.5696 -9.9889,15.7508 -10.1356,18.3327 -2.2172,39.0247 3.376,8.822 5.5918,16.5863 4.924,17.2541 -0.6677,0.6678 -6.3253,0.029 -12.5722,-1.4192 -19.679,-4.5626 -27.0532,-3.2811 -41.3005,7.1775 -7.453,5.471 -14.3813,9.117 -15.3961,8.1022 z"
       id="path22" />
    <path
       style="fill:#4d94bf;fill-opacity:1;stroke-width:13.4888"
       d="m 1700.2462,918.60188 c -27.9931,-2.8134 -43.378,-9.4947 -56.6919,-24.62 -13.8512,-15.7359 -17.1027,-26.3695 -20.9519,-68.5201 -3.609,-39.5218 -1.4695,-196.009 3.3819,-247.3559 3.4098,-36.0895 16.7265,-137.871 18.236,-139.3805 0.5204,-0.5204 9.5112,1.8656 19.9795,5.3021 22.1503,7.2714 31.6531,5.0563 36.7994,-8.5777 2.1993,-5.8266 5.8922,-8.8464 13.0371,-10.6609 21.9308,-5.5694 27.645,-32.6511 14.0112,-66.4049 l -6.989,-17.3032 16.8743,-10.4155 c 12.7544,-7.8724 19.003,-14.187 25.5923,-25.8626 7.4768,-13.2483 9.4732,-15.0429 14.0245,-12.6071 2.9187,1.562 6.0839,4.0976 7.0338,5.6345 1.0852,1.7559 19.4786,2.1313 49.4875,1.0102 43.0104,-1.607 50.1777,-1.1738 72.067,4.356 26.4153,6.673 63.6771,23.3332 85.0029,38.0057 17.5794,12.0949 47.32,42.6513 60.8003,62.4679 50.7082,74.5431 65.331,166.8417 42.9932,271.3705 -18.9628,88.7357 -121.4195,190.4887 -227.4011,225.8392 -46.1181,15.3829 -116.4391,22.8326 -167.287,17.7223 z m 122.8525,-154.7675 c 30.5585,-8.4907 68.0104,-28.7779 89.5308,-48.4974 27.515,-25.2124 45.1572,-64.253 50.4436,-111.6273 7.0842,-63.4837 -15.6343,-119.1913 -60.071,-147.2986 -16.893,-10.6852 -38.3558,-15.5663 -68.4467,-15.5663 -28.974,0 -44.1275,3.3164 -46.7839,10.239 -2.77,7.2184 -16.4281,87.2037 -20.7134,121.3029 -4.4204,35.1744 -8.8331,187.786 -5.6682,196.0336 1.6402,4.2744 4.517,4.7025 21.1355,3.1452 10.5803,-0.9914 28.8383,-4.4704 40.5733,-7.7311 z"
       id="path23" />
    <path
       style="fill:#4d94bf;fill-opacity:1;stroke-width:13.4888"
       d="m 2464.1239,934.13328 c -14.7791,-4.6096 -27.2081,-15.6473 -35.4277,-31.4622 -5.6467,-10.8643 -6.0111,-17.0015 -7.2603,-122.2873 l -1.3153,-110.8489 -7.2085,-1.8092 c -8.6501,-2.1711 -130.9418,0.8717 -139.8257,3.479 -8.8924,2.6099 -9.9152,12.3796 -10.8464,103.6087 -0.8521,83.4752 -3.0587,102.2344 -13.9211,118.3532 -9.2141,13.6729 -27.8203,25.6423 -42.3145,27.2212 -11.9188,1.2983 -12.9498,0.7873 -23.0805,-11.4406 -11.2626,-13.594 -30.7051,-24.8635 -42.8952,-24.8635 -4.2355,0 -8.3493,-2.1284 -9.6726,-5.0043 -1.2664,-2.7524 -2.791,-32.671 -3.3881,-66.4858 -0.9232,-52.2893 0.2468,-75.8045 7.8258,-157.2784 13.8374,-148.7524 37.593,-293.6032 52.9612,-322.9336 11.3447,-21.6513 36.5436,-37.4065 63.2582,-39.5508 34.2123,-2.7463 62.5056,18.1717 69.6523,51.4958 3.9051,18.2088 3.245,23.0201 -15.9579,116.3077 -8.5536,41.5535 -14.4571,76.6467 -13.1188,77.985 1.3382,1.3383 11.3492,1.1445 22.2467,-0.4305 10.8974,-1.5751 42.4985,-2.8892 70.2246,-2.9204 l 50.411,-0.057 3.1659,-7.8639 c 6.7977,-16.8859 11.4104,-43.6356 13.1568,-76.3002 5.1856,-96.9884 31.0947,-138.8852 85.8872,-138.8852 30.4159,0 51.026,13.4139 59.6933,38.8509 5.711,16.7611 5.8872,37.9589 0.5801,69.8141 -2.2273,13.3687 -4.8807,41.0354 -5.8966,61.4816 -1.7746,35.7152 -5.6649,71.8897 -8.822,82.0325 -0.8257,2.6527 -4.2492,5.2263 -7.6077,5.7192 -3.8591,0.5663 -6.8732,3.7814 -8.19,8.7363 -6.2078,23.3592 -9.3511,86.9536 -9.5773,193.762 -0.2442,115.353 -0.2718,115.8684 -6.9307,129.4749 -14.5685,29.7687 -50.3554,43.1562 -85.8062,32.0993 z"
       id="path24" />
    <path
       style="fill:#4d94bf;fill-opacity:1;stroke-width:13.4888"
       d="m 2781.5004,974.17118 c -75.5827,-16.9666 -130.3932,-56.1643 -161.4946,-115.4926 -10.2776,-19.6055 -17.105,-42.3953 -20.4391,-68.2257 -2.4947,-19.3282 5.0043,-35.7183 24.2656,-53.0359 20.3853,-18.3281 49.69,-24.7301 68.5522,-14.976 12.3103,6.3659 27.2756,25.4835 34.268,43.7764 18.1173,47.3962 50.8093,74.4023 93.453,77.1995 25.1134,1.6473 38.1653,-2.3727 49.4563,-15.2326 10.9247,-12.4425 15.6738,-29.9168 13.3997,-49.3035 -4.275,-36.4421 -22.4674,-55.7254 -91.2082,-96.6766 -100.0882,-59.6261 -131.4397,-88.1076 -144.878,-131.616 -19.2789,-62.4177 -3.6336,-131.7255 40.5627,-179.6898 47.1586,-51.1795 102.1835,-75.7842 169.5189,-75.8016 70.595,-0.018 127.102,30.0544 165.1946,87.9155 18.4455,28.0177 23.3239,43.9235 23.4385,76.4199 0.1127,31.9336 -4.1005,43.796 -21.8642,61.5596 -18.9382,18.9383 -48.3064,23.4376 -75.6402,11.5885 -19.1723,-8.3112 -26.8928,-16.8616 -40.0908,-44.4005 -17.4348,-36.3796 -35.3708,-50.1946 -65.1671,-50.1946 -45.1108,0 -72.0735,43.0162 -49.739,79.3534 8.3922,13.6538 23.7367,24.8708 81.0258,59.2309 62.5218,37.4984 84.3278,53.2829 106.8074,77.3137 19.5641,20.9141 38.8222,56.8724 43.6493,81.501 l 3.0825,15.7278 -31.0983,31.4557 c -23.2002,23.4669 -38.6473,42.7126 -60.8222,75.7796 -38.1871,56.944 -64.973,92.8602 -79.9633,107.2195 -11.6133,11.1244 -12.5004,11.4395 -33.9649,12.0635 -12.1221,0.3525 -30.2592,-1.2042 -40.3046,-3.4591 z"
       id="path25" />
    <path
       style="fill:#5094be;fill-opacity:1;stroke-width:13.4888"
       d="m 2770.0769,969.57608 c -69.9525,-18.7834 -120.4196,-57.3284 -148.8387,-113.678 -10.3598,-20.5414 -20.2161,-55.8749 -20.2161,-72.472 0,-20.6552 17.3704,-44.0729 41.4643,-55.8997 37.7443,-18.5272 59.5142,-7.269 84.3731,43.633 24.6571,50.4886 50.2484,70.0352 94.6544,72.2967 19.5254,0.9944 26.8142,0.2067 35.2854,-3.8132 15.7248,-7.4618 25.4198,-23.8587 26.7851,-45.3006 2.9079,-45.6667 -15.0618,-67.578 -95.2581,-116.1527 -101.3161,-61.3669 -129.8723,-89.1952 -142.7395,-139.1012 -5.7261,-22.209 -5.8282,-63.3221 -0.2123,-85.4895 17.7538,-70.0789 80.8477,-131.2062 155.0033,-150.172 27.186,-6.953 79.442,-7.4971 106.6222,-1.1101 33.257,7.8149 58.7375,22.6104 85.7882,49.8136 38.1075,38.3223 51.6141,67.2695 51.3474,110.0473 -0.1985,31.824 -9.2858,50.1614 -32.4382,65.4572 -14.182,9.3695 -31.8691,12.0139 -50.4849,7.5481 -22.2081,-5.3276 -35.634,-17.5286 -51.8889,-47.1547 -22.4236,-40.8689 -34.3479,-50.0431 -65.0441,-50.0431 -28.2898,0 -45.3685,9.3467 -54.8644,30.0258 -11.4689,24.9758 -3.6261,50.6238 21.2131,69.3719 8.1802,6.1742 37.3924,25.0835 64.9161,42.0206 62.3621,38.3754 84.3665,54.5534 104.5766,76.8862 18.0607,19.9578 39.9059,60.9409 42.8116,80.3177 l 1.9241,12.831 -31.0471,33.8938 c -17.076,18.6415 -38.7681,44.9035 -48.2048,58.36 -9.4367,13.4564 -28.7391,40.9802 -42.8941,61.1639 -14.1551,20.1837 -33.4814,44.8061 -42.9475,54.7163 l -17.2111,18.0187 -25.683,-0.1735 c -16.0845,-0.1086 -33.5721,-2.2918 -46.7921,-5.8415 z"
       id="path26" />
    <path
       style="fill:#2c729c;fill-opacity:1;stroke-width:13.4888"
       d="m 2192.0985,1185.3655 c -42.4487,-8.5582 -83.8363,-23.5134 -116.8037,-42.2063 -9.981,-5.6594 -19.7759,-10.2898 -21.7664,-10.2898 -1.9905,0 -12.1176,3.8534 -22.5047,8.5631 -41.5986,18.8618 -97.0417,29.566 -134.346,25.9378 l -16.6091,-1.6154 11.874,-11.4384 c 13.9761,-13.4634 18.2414,-22.4656 14.2119,-29.9949 -1.5641,-2.9225 -9.5934,-11.7523 -17.8429,-19.6217 -8.2494,-7.8695 -14.3338,-14.9733 -13.5208,-15.7863 0.813,-0.813 11.094,1.1754 22.8467,4.4186 15.4733,4.27 33.3877,6.2938 64.9344,7.3358 52.4778,1.7332 53.2029,1.1918 34.2302,-25.5584 -28.0171,-39.5022 -40.662,-75.52822 -38.5206,-109.74692 2.116,-33.8127 19.1573,-55.5425 43.5585,-55.5425 14.4883,0 27.6881,6.7769 46.2595,23.7501 8.588,7.8489 16.577,13.1153 17.7534,11.7031 1.1763,-1.4123 6.8862,-8.5582 12.6886,-15.8798 18.6662,-23.5536 52.5322,-34.7577 72.9496,-24.1345 33.0137,17.177 39.6246,63.4006 16.0786,112.42152 -11.6725,24.3012 -37.0761,56.7383 -59.5472,76.0341 -8.8056,7.5613 -16.0102,14.9433 -16.0102,16.4043 0,6.8764 51.9481,21.0635 88.6478,24.2099 26.8474,2.3017 65.1822,-2.4045 93.8284,-11.519 27.8497,-8.8611 94.0657,-41.079 113.1614,-55.0596 8.0084,-5.8632 33.1636,-26.6137 55.9003,-46.1121 68.0829,-58.38622 88.3942,-68.94282 132.5577,-68.89602 34.0526,0.036 46.3681,5.6569 80.6766,36.8209 28.1192,25.54202 49.9567,38.15622 75.0872,43.37322 66.2826,13.7603 117.1305,-22.4727 202.8744,-144.56322 37.0222,-52.7158 54.6531,-74.5352 79.9871,-98.989 42.3682,-40.8963 86.3968,-61.4579 137.6427,-64.2799 l 27.7165,-1.5263 -9.2938,8.2561 c -11.2001,9.9497 -11.5253,13.7762 -2.0146,23.7031 l 7.279,7.5977 -19.8089,1.8411 c -68.3177,6.3494 -121.7506,49.4305 -192.062,154.8529 -49.4447,74.1355 -87.7242,113.61852 -131.3103,135.43852 -66.5827,33.3325 -100.4362,25.7855 -164.6589,-36.7075 -31.1653,-30.32592 -45.2001,-38.18412 -67.8501,-37.99012 -30.8567,0.2642 -64.2122,21.55082 -126.5539,80.76282 -16.7653,15.9237 -36.66,31.8833 -45.0348,36.1272 -8.2512,4.1812 -28.1928,16.4521 -44.3147,27.2687 -59.7008,40.0549 -107.8593,58.6399 -157.6901,60.8548 -15.1425,0.673 -30.7489,0.575 -34.6808,-0.2177 z m -117.4813,-108.59 c 49.3591,-27.1124 84.2651,-67.8936 88.2313,-103.08222 5.0867,-45.1283 -41.6449,-50.7112 -87.6457,-10.4708 l -14.3524,12.5551 -12.9449,-9.8811 c -17.7478,-13.5472 -40.9725,-18.8028 -54.5269,-12.3392 -32.0516,15.2843 -21.9084,64.01162 22.8909,109.96672 27.1566,27.8572 30.4115,28.5964 58.3477,13.2515 z"
       id="path27" />
    <path
       style="fill:#f9a5bc;fill-opacity:1;stroke-width:13.4888"
       d="m 1656.5765,308.58798 c -7.3775,-5.1116 -14.0879,-11.024 -14.9119,-13.1389 -2.1719,-5.5739 7.6853,-26.241 18.2601,-38.285 12.9851,-14.7893 29.9202,-22.2203 50.5181,-22.1672 23.2675,0.06 25.2605,1.7201 19.9924,16.6515 -5.0701,14.3702 -4.1364,17.5468 7.0307,23.9211 4.6937,2.6792 8.534,6.1751 8.534,7.7686 0,5.3758 -19.0931,22.041 -32.4399,28.3147 -20.4435,9.6096 -40.2263,8.5456 -56.9835,-3.0648 z"
       id="path28" />
    <path
       style="fill:#f9a5bc;fill-opacity:1;stroke-width:13.4888"
       d="m 1609.4734,271.41308 c -23.2555,-24.105 -29.8853,-59.9219 -16.1818,-87.4212 l 7.4297,-14.9094 9.8275,8.6287 c 5.4051,4.7457 10.6774,8.6286 11.7162,8.6286 1.0388,0 5.4514,-3.4132 9.8057,-7.5849 9.6407,-9.2364 14.0313,-6.75 21.1924,12.001 6.3134,16.5313 4.5178,41.8073 -4.1677,58.6673 -7.1375,13.8552 -22.4516,31.2836 -27.4883,31.2836 -1.7421,0 -7.2023,-4.1821 -12.1337,-9.2937 z"
       id="path29" />
    <path
       style="fill:#f9a5bc;fill-opacity:1;stroke-width:13.4888"
       d="m 1530.0997,312.53758 c -12.2271,-5.5782 -32.8855,-25.0265 -32.8855,-30.959 0,-1.9715 3.7789,-5.5386 8.3975,-7.927 11.4826,-5.9379 12.2281,-7.9481 7.3114,-19.7154 -6.0828,-14.5582 -5.7074,-15.3538 8.6953,-18.4256 21.9465,-4.6808 44.0206,2.6053 60.3828,19.9307 8.4977,8.9979 21.0184,29.6166 21.0184,34.6122 0,4.0672 -19.725,22.1395 -27.3128,25.0243 -11.5332,4.385 -33.0554,3.1862 -45.6071,-2.5402 z"
       id="path30" />
    <path
       style="fill:#f9a5bc;fill-opacity:1;stroke-width:13.4888"
       d="m 1559.0274,412.24868 c -1.8188,-11.3741 -1.9012,-11.4384 -14.6635,-11.4384 h -12.8344 v -11.5303 c 0,-6.3416 1.9931,-16.3145 4.429,-22.1619 9.7035,-23.2928 41.8567,-46.2884 64.8062,-46.3488 10.0719,-0.027 10.7809,0.592 13.898,12.1253 8.6463,31.9914 -7.4772,71.1751 -35.1209,85.3516 -15.4656,7.9313 -18.4254,7.0659 -20.5144,-5.9975 z"
       id="path31" />
    <path
       style="fill:#f9a5bc;fill-opacity:1;stroke-width:13.4888"
       d="m 1664.5012,419.23848 c -21.638,-11.3297 -34.155,-31.0607 -37.441,-59.0194 -2.1871,-18.6084 2.4057,-35.5505 10.318,-38.0617 2.9751,-0.9443 11.5816,0.1207 19.1257,2.3666 33.4328,9.953 54.7008,35.2801 55.0553,65.5628 l 0.1255,10.7235 h -12.5842 c -12.1804,0 -12.6654,0.3434 -15.1156,10.7041 -2.9059,12.2875 -7.3806,14.0614 -19.4837,7.7241 z"
       id="path32" />
    <path
       style="fill:#f9a5bc;fill-opacity:1;stroke-width:13.4888"
       d="m 2658.1863,247.67838 c -0.052,-10.3021 -13.5668,-34.7746 -23.3078,-42.2045 -5.3093,-4.0496 -15.6385,-8.9637 -22.9538,-10.9202 l -13.3004,-3.5573 15.9264,-6.4731 c 19.8709,-8.0761 33.859,-21.1471 42.4296,-39.6478 4.8169,-10.3977 6.6687,-12.5118 6.7884,-7.7499 0.2602,10.3392 10.6864,28.223 20.8705,35.7984 5.1261,3.813 15.6969,9.3106 23.4906,12.2169 l 14.1705,5.2842 -14.1705,4.3707 c -18.315,5.6492 -36.8066,23.6868 -41.6227,40.6009 -4.0768,14.3176 -8.2795,20.521 -8.3208,12.2817 z"
       id="path33" />
    <path
       style="fill:#f9a5bc;fill-opacity:1;stroke-width:13.4888"
       d="m 3166.4442,618.83511 c -4.2476,-10.68164 -0.8214,-12.86366 -11.8457,-14.78158 -23.637,-4.11217 -12.8843,-8.15345 -2.2145,-12.51821 7.5311,-3.08079 12.2705,-8.27951 14.1352,-12.01979 l 3.3904,-6.8004 4.6071,8.909 c 2.5339,4.9 9.1279,11.2284 14.6533,14.0631 l 10.0464,5.1541 -9.7804,3.5366 c -6.3851,2.3089 -11.0126,6.5116 -13.3301,12.1066 -4.0548,9.7892 -3.0455,18.98861 -9.6617,2.35058 z"
       id="path34"
       sodipodi:nodetypes="sssscsscsss" />
    <path
       style="fill:#f9a5bc;fill-opacity:1;stroke-width:13.4888"
       d=""
       id="path35" />
    <path
       style="fill:#ae2c4e;fill-opacity:1;stroke-width:13.4888"
       d="m 1823.7482,1014.2366 c -1.7813,-3.9095 -7.4568,-8.8428 -12.6123,-10.9629 l -9.3736,-3.85472 9.2453,-4.8133 c 5.0849,-2.6474 11.296,-8.779 13.8024,-13.6258 l 4.557,-8.8124 5.6354,11.3901 c 4.3021,8.6953 7.802,11.8307 14.7936,13.2526 l 9.1584,1.8627 -11.877,5.35322 c -6.5323,2.9443 -12.7315,8.0454 -13.7758,11.336 -2.5132,7.9183 -5.5984,7.5549 -9.5534,-1.1255 z"
       id="path36" />
    <path
       style="fill:#ae2c4e;fill-opacity:1;stroke-width:13.4888"
       d="m 1265.7403,565.97318 c -14.0443,-4.7235 -30.411,-22.8167 -36.0808,-39.887 -6.2035,-18.6768 -4.4438,-47.7762 3.874,-64.0651 15.5882,-30.5265 51.959,-43.8422 82.214,-30.0993 46.28,21.0221 50.6103,99.0965 7.0935,127.8945 -13.1225,8.6841 -40.7343,11.6613 -57.1007,6.1569 z m 45.6441,-18.8012 c 20.6307,-10.7615 31.4491,-46.9783 21.2934,-71.2842 -5.7363,-13.7291 -11.6988,-20.0827 -25.4162,-27.0836 -22.5551,-11.5114 -46.4243,-2.4452 -57.7831,21.9475 -17.9101,38.4618 2.5724,81.6177 38.7371,81.6177 7.2626,0 17.6886,-2.3388 23.1688,-5.1974 z"
       id="path37" />
    <path
       style="fill:#ae2c4e;fill-opacity:1;stroke-width:19.076"
       d="m 349.9345,966.15678 c -35.649,-13.0505 -54.7036,-43.564 -57.724,-92.4375 -4.4357,-71.7745 18.8344,-148.5451 86.9013,-286.6978 25.0349,-50.8124 45.518,-95.1929 45.518,-98.6233 0,-5.3741 -5.2409,-5.8525 -37.8739,-3.4571 -54.3767,3.9915 -56.871,5.0645 -70.0351,30.124 -16.61,31.6194 -37.778,45.5502 -73.0486,48.0738 -21.4062,1.5316 -31.0526,0.3673 -41.7319,-5.0371 -43.2195,-21.8717 -56.2611,-57.2566 -56.3224,-152.8159 -0.027,-42.3482 1.0503,-49.7758 9.6794,-66.7275 24.5457,-48.2196 66.2286,-61.3347 115.9578,-36.4847 l 25.8572,12.921 70.1369,-7.0282 c 38.5753,-3.8655 94.1095,-11.4825 123.4092,-16.9266 65.6794,-12.2039 72.5117,-12.2365 97.7867,-0.4665 31.5803,14.7062 54.4401,46.4556 54.5432,75.7541 0.048,13.7371 6.1327,10.5483 30.8853,-16.1867 30.2962,-32.7228 55.8287,-50.0234 93.3875,-63.2786 36.9987,-13.0576 108.3381,-13.9341 147.5808,-1.8133 63.5808,19.6381 109.001,65.8735 130.9627,133.3132 4.672,14.3468 10.3388,26.6998 12.5928,27.4512 2.254,0.7513 8.2618,-9.7672 13.3506,-23.3745 27.0524,-72.3375 92.7176,-130.0772 164.9327,-145.0262 32.1603,-6.6574 100.6448,-5.5658 126.4559,2.0156 72.9161,21.4174 129.2929,81.4374 151.7136,161.5176 10.2732,36.6925 12.2676,125.306 3.9264,174.4477 -16.8916,99.5158 -58.4974,182.6803 -122.2096,244.2811 -81.3183,78.6234 -171.81,113.7289 -227.7512,88.3541 -24.4668,-11.098 -31.9008,-18.3736 -43.0694,-42.1517 -12.0315,-25.6153 -11.9965,-43.1623 0.138,-69.2229 11.3528,-24.3819 28.4949,-38.5465 63.0266,-52.0794 41.6937,-16.3396 89.0226,-46.4763 89.0226,-56.6852 0,-6.9196 -9.3121,-10.0629 -29.8118,-10.0629 -43.6629,0 -90.6687,-20.8838 -126.0822,-56.016 -27.3698,-27.1524 -38.5841,-45.5803 -54.8338,-90.1054 -6.786,-18.5942 -12.9904,-34.4598 -13.7875,-35.2569 -0.7971,-0.7971 -9.9617,15.5741 -20.3659,36.3803 -26.6438,53.2824 -48.0381,81.6831 -94.6691,125.6723 -22.327,21.0621 -40.5945,40.3615 -40.5945,42.8875 0,2.526 4.3417,5.6825 9.6482,7.0143 15.4318,3.8732 72.0748,-0.2938 86.035,-6.3292 23.9899,-10.3715 59.3745,8.9335 77.4133,42.2348 10.2884,18.9932 9.1365,68.3963 -2.089,89.5988 -11.2948,21.3333 -33.4259,40.6068 -61.6324,53.6743 -32.918,15.2503 -66.2637,15.8342 -144.2007,2.5253 -71.7592,-12.2539 -89.7524,-11.9715 -145.5601,2.2845 -52.1722,13.3275 -78.4304,5.804 -101.528,-29.0897 -10.009,-15.1207 -11.2831,-20.7325 -11.2831,-49.698 0,-27.4428 1.7762,-36.2692 11.1322,-55.3205 15.0129,-30.57 56.8391,-77.8482 113.3689,-128.1463 62.0389,-55.2 113.0952,-109.304 123.5388,-130.9133 4.6611,-9.6445 9.6817,-27.8492 11.157,-40.4551 2.4641,-21.0557 1.8328,-23.7693 -7.7617,-33.3638 -19.9601,-19.9601 -36.8565,-8.852 -45.786,30.1006 -9.0259,39.3732 -22.3538,59.3761 -47.3022,70.9923 -34.9993,16.2959 -82.6151,12.1551 -108.2481,-9.4137 -14.7255,-12.3907 -31.8029,-46.1746 -31.861,-63.0303 -0.075,-21.7166 -9.9964,-8.8894 -41.3803,53.499 -56.12,111.5618 -82.3556,192.5073 -94.2485,290.788 -8.7877,72.6206 -14.2456,89.2529 -35.811,109.1312 -26.8229,24.7245 -65.5004,31.8478 -101.4556,18.6852 z m 78.0863,-15.4571 c 26.5599,-13.7346 34.8961,-33.8971 44.8732,-108.533 14.1781,-106.0614 30.833,-159.9578 84.0376,-271.9495 67.8662,-142.8536 67.1667,-141.0063 68.9087,-181.9842 1.3583,-31.9533 0.4026,-38.6147 -7.8285,-54.5627 -13.8082,-26.7539 -30.7503,-36.4294 -63.7889,-36.4294 -14.8119,0 -46.232,3.5461 -69.8225,7.8803 -44.4795,8.1721 -134.2889,19.1244 -173.0052,21.0981 -18.1401,0.9248 -25.599,-0.8586 -40.4409,-9.6692 -39.0199,-23.1635 -77.3433,-16.4699 -99.7974,17.4307 -10.2279,15.4417 -11.5601,21.3787 -12.8085,57.0801 -1.7301,49.4805 4.8463,100.433 15.9138,123.2953 12.3957,25.6061 28.2227,35.1634 61.3286,37.0341 24.3372,1.3752 29.3398,0.3371 43.4846,-9.0235 17.1459,-11.3466 32.3198,-36.1689 32.3198,-52.8704 0,-5.6492 0.455,-10.3615 1.011,-10.4718 5.5745,-1.1054 138.6742,-15.0544 139.1579,-14.5839 0.3562,0.3465 -19.8973,42.1091 -45.0079,92.8058 -76.9044,155.2655 -99.7903,223.004 -100.708,298.0793 -0.4628,37.8541 0.5782,44.6348 9.5911,62.4733 11.2293,22.2251 24.4864,33.672 44.9817,38.8397 17.5298,4.42 53.7154,1.2408 67.5998,-5.9391 z m 837.4502,-18.9735 c 58.466,-20.0572 131.4804,-77.8434 168.259,-133.1664 38.0869,-57.2908 61.321,-119.1867 72.8106,-193.9678 25.2116,-164.093 -36.3339,-288.4471 -155.231,-313.648 -108.3345,-22.962 -212.0064,21.8448 -256.549,110.8802 -19.1986,38.3759 -24.4153,66.0612 -22.268,118.1786 1.6143,39.179 3.0694,45.6877 16.5703,74.1167 35.194,74.1087 106.5433,115.9568 187.9769,110.253 l 33.481,-2.3451 -7.1944,12.3581 c -13.7781,23.6673 -52.8092,55.3694 -89.3087,72.5392 -19.3404,9.0979 -39.4128,18.5906 -44.6052,21.095 -5.1924,2.5044 -14.67,10.5092 -21.0613,17.7884 -36.3298,41.3774 -16.373,105.0014 35.9053,114.4695 21.1462,3.8297 55.7423,0.187 81.2145,-8.5514 z m -543.9916,-13.717 c 44.7674,-12.9731 77.234,-12.9693 149.8141,0.017 31.0247,5.5512 67.5523,10.0931 81.1725,10.0931 63.4645,0 105.4139,-36.3096 110.1526,-95.3433 2.277,-28.3668 -3.2527,-49.0833 -17.6772,-66.2259 -14.1304,-16.793 -28.4783,-18.5893 -62.0687,-7.7708 -27.1126,8.7322 -30.4267,8.9279 -69.2162,4.0869 -63.9168,-7.9768 -63.3325,-5.2211 -10.5695,-49.8488 70.8624,-59.9366 116.2552,-121.5864 130.519,-177.2633 4.9139,-19.1807 6.2171,-37.4743 4.9173,-69.0233 -1.6082,-39.0309 -3.0938,-45.7161 -16.373,-73.6783 -24.9424,-52.5216 -60.9648,-81.2854 -120.7232,-96.397 -61.7099,-15.6051 -136.3967,-4.4392 -182.0842,27.2223 -51.6117,35.7669 -89.4225,113.8472 -82.082,169.5014 5.9685,45.2511 27.8909,67.4585 69.1886,70.0882 61.8646,3.9392 75.3148,-7.5702 94.2295,-80.6323 9.8823,-38.1725 39.4569,-52.072 62.2654,-29.2634 13.3815,13.3814 16.3377,24.7396 13.2421,50.8774 -4.7591,40.183 -32.0858,72.9276 -178.1409,213.4601 -69.1015,66.4886 -90.7193,107.8539 -79.5608,152.2381 9.4521,37.5971 29.1198,57.3935 57.4375,57.8137 5.8679,0.087 26.3686,-4.3913 45.5571,-9.952 z"
       id="path39" />
  </g>
</svg>
